<?xml version="1.0" encoding="utf-8"?>
<!-- Generator: Adobe Illustrator 23.0.1, SVG Export Plug-In . SVG Version: 6.00 Build 0)  -->
<svg version="1.1" id="Layer_1" xmlns="http://www.w3.org/2000/svg" xmlns:xlink="http://www.w3.org/1999/xlink" x="0px" y="0px"
	 viewBox="0 0 78.71 78.71" style="enable-background:new 0 0 78.71 78.71;" xml:space="preserve">
<style type="text/css">
	.st0{stroke:#000000;stroke-width:0.75;stroke-miterlimit:10;}
	.st1{fill:#27B3CA;}
	.st2{fill:#565656;}
</style>
<g>
	<path class="st0" d="M73.15,41.2c-2.92-0.61-6.87-0.93-11.43-0.93c-1.88,0-3.66,0.06-5.3,0.16V4.23c0-2.33-1.9-4.23-4.23-4.23H4.23
		C1.78,0,0,2.04,0,4.84v63.79c0,1.67,1.85,3.61,4.23,3.61h40.51v1.77c0,2.61,4.18,3.48,5.56,3.76c2.92,0.61,6.87,0.93,11.43,0.93
		s8.51-0.32,11.43-0.93c1.37-0.29,5.56-1.16,5.56-3.76V44.96C78.71,42.36,74.52,41.49,73.15,41.2z M76.4,59.48
		c-0.02,0.05-0.5,0.9-4.1,1.59c-2.73,0.52-6.39,0.8-10.58,0.8s-7.84-0.28-10.58-0.8c-3.69-0.71-4.1-1.58-4.1-1.58V55
		c1.21,0.57,2.57,0.85,3.25,0.99c2.92,0.61,6.87,0.93,11.43,0.93s8.51-0.32,11.43-0.93c0.68-0.14,2.04-0.43,3.25-0.99V59.48z
		 M29.67,59.72c-0.64,0-1.15,0.52-1.15,1.15v2.92H10.99c-0.6,0-1-0.49-1-0.69V51.65h18.52v3.84c0,0.64,0.52,1.15,1.15,1.15
		s1.15-0.52,1.15-1.15v-3.84h13.91v12.14H30.82v-2.92C30.82,60.24,30.31,59.72,29.67,59.72z M49.34,41.41
		c-1.77,0.43-4.61,1.4-4.61,3.55v4.38H30.82V37.2h17.52c0.55,0,1,0.45,1,1V41.41z M28.52,49.34H9.99V38.51c0-0.78,0.4-1.31,1-1.31
		h17.52V49.34z M76.4,52.22c-0.02,0.05-0.5,0.9-4.1,1.59c-2.73,0.52-6.39,0.8-10.58,0.8s-7.84-0.28-10.58-0.8
		c-3.69-0.71-4.1-1.58-4.1-1.58v-4.49c1.21,0.57,2.57,0.85,3.25,0.99c2.92,0.61,6.87,0.93,11.43,0.93s8.51-0.32,11.43-0.93
		c0.68-0.14,2.04-0.43,3.25-0.99V52.22z M72.3,43.38c3.48,0.67,4.04,1.48,4.1,1.58c-0.06,0.1-0.62,0.91-4.1,1.58
		c-2.73,0.52-6.39,0.8-10.58,0.8s-7.84-0.28-10.58-0.8c-3.48-0.67-4.04-1.48-4.1-1.58c0.06-0.1,0.62-0.91,4.1-1.58
		c2.73-0.52,6.39-0.8,10.58-0.8S69.56,42.86,72.3,43.38z M4.23,69.94c-1.11,0-1.92-0.92-1.92-1.31V31.05h37.97
		c0.64,0,1.15-0.52,1.15-1.15s-0.52-1.15-1.15-1.15H2.31V4.84c0-1.54,0.75-2.54,1.92-2.54h47.96c1.06,0,1.92,0.86,1.92,1.92v24.52
		h-8.45c-0.64,0-1.15,0.52-1.15,1.15s0.52,1.15,1.15,1.15h8.45v9.58c-0.87,0.09-1.69,0.2-2.46,0.32V38.2c0-1.82-1.48-3.31-3.31-3.31
		H10.99c-1.88,0-3.31,1.55-3.31,3.61v24.6c0,1.6,1.54,3,3.31,3h33.74v3.84H4.23z M72.3,75.6c-2.73,0.52-6.39,0.8-10.58,0.8
		s-7.84-0.28-10.58-0.8c-3.69-0.71-4.1-1.58-4.1-1.58v-4.49c1.21,0.57,2.57,0.85,3.25,0.99c2.92,0.61,6.87,0.93,11.43,0.93
		c2.2,0,4.28-0.08,6.19-0.23c0.63-0.05,1.11-0.61,1.06-1.24c-0.05-0.63-0.61-1.11-1.24-1.06c-1.85,0.15-3.87,0.22-6,0.22
		c-4.19,0-7.84-0.28-10.58-0.8c-3.69-0.71-4.1-1.58-4.1-1.58v-4.49c1.21,0.57,2.57,0.85,3.25,0.99c2.92,0.61,6.87,0.93,11.43,0.93
		s8.51-0.32,11.43-0.93c0.68-0.14,2.04-0.43,3.25-0.99v4.49c-0.02,0.05-0.45,0.8-3.5,1.46c-0.62,0.14-1.02,0.75-0.88,1.37
		c0.13,0.63,0.77,1.02,1.37,0.88c0.63-0.14,1.88-0.41,3.01-0.94v4.48C76.38,74.06,75.9,74.91,72.3,75.6z"/>
	<path class="st0" d="M51.8,21.6V9.45c0-1.82-1.48-3.31-3.31-3.31H23.06c-0.64,0-1.15,0.52-1.15,1.15s0.52,1.15,1.15,1.15H48.5
		c0.55,0,1,0.45,1,1V21.6c0,0.55-0.45,1-1,1H10.99c-0.55,0-1-0.45-1-1V9.45c0-0.55,0.45-1,1-1h6.69c0.64,0,1.15-0.52,1.15-1.15
		s-0.52-1.15-1.15-1.15h-6.69c-1.82,0-3.31,1.48-3.31,3.31V21.6c0,1.82,1.48,3.31,3.31,3.31H48.5C50.32,24.9,51.8,23.42,51.8,21.6z"
		/>
	<path class="st1" d="M24.21,56.57h-8.3c-0.64,0-1.15,0.52-1.15,1.15c0,0.64,0.52,1.15,1.15,1.15h8.3c0.64,0,1.15-0.52,1.15-1.15
		C25.36,57.09,24.85,56.57,24.21,56.57z"/>
	<path class="st2" d="M16.68,44.43h2.23v2.23c0,0.64,0.52,1.15,1.15,1.15c0.64,0,1.15-0.52,1.15-1.15v-2.23h2.23
		c0.64,0,1.15-0.52,1.15-1.15c0-0.64-0.52-1.15-1.15-1.15h-2.23v-2.23c0-0.64-0.52-1.15-1.15-1.15c-0.64,0-1.15,0.52-1.15,1.15v2.23
		h-2.23c-0.64,0-1.15,0.52-1.15,1.15C15.53,43.91,16.04,44.43,16.68,44.43z"/>
	<path class="st1" d="M42.56,40.07c-0.45-0.45-1.18-0.45-1.63,0l-1.58,1.58l-1.58-1.58c-0.45-0.45-1.18-0.45-1.63,0
		c-0.45,0.45-0.45,1.18,0,1.63l1.58,1.58l-1.58,1.58c-0.45,0.45-0.45,1.18,0,1.63c0.45,0.45,1.18,0.45,1.63,0l1.58-1.58l1.58,1.58
		c0.45,0.45,1.18,0.45,1.63,0c0.45-0.45,0.45-1.18,0-1.63l-1.58-1.58l1.58-1.58C43.01,41.25,43.01,40.52,42.56,40.07z"/>
	<path class="st2" d="M36.76,61.51c0.29,0,0.59-0.11,0.82-0.34l5.23-5.23c0.45-0.45,0.45-1.18,0-1.63c-0.45-0.45-1.18-0.45-1.63,0
		l-5.23,5.23c-0.45,0.45-0.45,1.18,0,1.63C36.17,61.4,36.47,61.51,36.76,61.51L36.76,61.51z"/>
	<g>
		<circle class="st2" cx="37.12" cy="54.8" r="1.15"/>
		<circle class="st2" cx="41.74" cy="60.64" r="1.15"/>
	</g>
	<path class="st1" d="M44.66,20.45c1.48,0,2.69-1.21,2.69-2.69V13.3c0-1.48-1.21-2.69-2.69-2.69H42.5c-1.48,0-2.69,1.21-2.69,2.69
		v4.46c0,1.48,1.21,2.69,2.69,2.69H44.66z M42.12,17.75V13.3c0-0.21,0.17-0.38,0.38-0.38h2.15c0.21,0,0.38,0.17,0.38,0.38v4.46
		c0,0.21-0.17,0.38-0.38,0.38H42.5C42.29,18.14,42.12,17.97,42.12,17.75z"/>
</g>
</svg>
