<?xml version="1.0" encoding="utf-8"?>
<!-- Generator: Adobe Illustrator 23.0.1, SVG Export Plug-In . SVG Version: 6.00 Build 0)  -->
<svg version="1.1" id="Layer_1" xmlns="http://www.w3.org/2000/svg" xmlns:xlink="http://www.w3.org/1999/xlink" x="0px" y="0px"
	 viewBox="0 0 78.71 78.71" style="enable-background:new 0 0 78.71 78.71;" xml:space="preserve">
<style type="text/css">
	.st0{fill:#565656;}
	.st1{fill:#27B3CA;}
</style>
<g>
	<path d="M2.62,78.71h7.87c1.45,0,2.62-1.18,2.62-2.62v-2.62h29.65c6.59,0,13.03-1.85,18.62-5.34c8.43-5.27,14.25-13.9,15.98-23.69
		l0.57-3.22c0.25-1.44-0.14-2.91-1.08-4.03s-2.32-1.76-3.78-1.76c-0.8,0-1.56,0.2-2.24,0.54v-5.79h1.31c0.53,0,1.01-0.32,1.21-0.81
		c0.2-0.49,0.09-1.05-0.28-1.43L62.58,17.44c-0.51-0.51-1.34-0.51-1.85,0l-3.01,3.01V2.62c0-0.72-0.59-1.31-1.31-1.31H43.29
		c-0.73,0-1.31,0.59-1.31,1.31v14.43h-5.32c-1-2.2-1.74-3.48-2.33-4.23l3.31-8.1c0.37-0.89,0.15-1.88-0.55-2.54
		c-0.7-0.66-1.71-0.8-2.57-0.37l-2.48,1.24l-1.56-2.08c-0.39-0.53-1-0.86-1.66-0.91c-0.66-0.05-1.3,0.19-1.77,0.66l-2,1.99
		l-1.31-1.75c-0.4-0.53-1-0.86-1.66-0.91c-0.66-0.05-1.3,0.19-1.77,0.66l-2.52,2.52l-3.78-1.08c-0.89-0.25-1.83,0.05-2.4,0.76
		c-0.57,0.72-0.66,1.7-0.22,2.51l3.97,7.32c-2.78,2.52-6.19,9.59-6.19,16.01v4.02c0,4.34,3.53,7.87,7.87,7.87h14.43h11.81h10.49
		H67.4l-2.77,5.54l-7.21,3.09c-0.81-2.71-3.29-4.7-6.26-4.7H32.27c-6.83,0-13.39,1.88-19.16,5.44v-2.82c0-1.45-1.18-2.62-2.62-2.62
		H2.62C1.18,44.6,0,45.78,0,47.22v28.86C0,77.53,1.18,78.71,2.62,78.71L2.62,78.71z M17.29,5.83c0.79,0.23,1.65,0.01,2.23-0.58
		l2.38-2.38l1.31,1.75c0.4,0.53,1,0.86,1.66,0.9c0.67,0.04,1.3-0.2,1.77-0.66l2-1.99l1.5,1.99c0.66,0.88,1.85,1.16,2.84,0.67
		l1.91-0.95l-2.96,7.22h-3.55l1.67-3.35l-2.35-1.17l-2.26,4.52h-2.3L21.3,8l-2.37,1.14l1.28,2.67h-2.38L14.1,4.92L17.29,5.83z
		 M30.17,18.36v19.68H17.05c-2.89,0-5.25-2.35-5.25-5.25v-4.02c0-7.02,4.35-13.57,5.59-14.34h14.86c0.21,0.26,0.69,0.95,1.51,2.62
		h-2.28C30.76,17.05,30.17,17.64,30.17,18.36L30.17,18.36z M32.79,19.68h9.18v18.36h-9.18V19.68z M61.65,20.22l7.33,7.33H54.33
		L61.65,20.22z M44.6,3.94h10.49v19.13l-4.86,4.86c-0.38,0.38-0.49,0.94-0.28,1.43c0.2,0.49,0.68,0.81,1.21,0.81h1.31v7.87H44.6
		V3.94z M55.09,30.17h13.12v7.87h-2.62v-5.25c0-0.72-0.59-1.31-1.31-1.31h-5.25c-0.73,0-1.31,0.59-1.31,1.31v5.25h-2.62V30.17z
		 M62.96,38.04h-2.62v-3.94h2.62V38.04z M32.27,47.22h18.89c2.17,0,3.94,1.77,3.94,3.94c0,2.17-1.77,3.94-3.94,3.94H30.17v2.62
		h20.99c3.31,0,6.02-2.47,6.47-5.66l8.48-3.63c0.29-0.12,0.52-0.34,0.66-0.62l4.24-8.49c0.4-0.79,1.19-1.28,2.07-1.28
		c0.68,0,1.33,0.3,1.77,0.83s0.63,1.21,0.51,1.89l-0.57,3.22C73.18,53.03,67.8,61.02,60,65.9c-5.17,3.23-11.13,4.94-17.23,4.94
		H13.12V53.18C18.78,49.29,25.39,47.22,32.27,47.22L32.27,47.22z M2.62,47.22h7.87l0,28.86H2.62L2.62,47.22z"/>
	<path class="st0" d="M5.25,51.16h2.62v3.94H5.25V51.16z"/>
	<path class="st0" d="M47.22,6.56h1.31v2.62h-1.31V6.56z"/>
	<path class="st0" d="M51.16,6.56h1.31v2.62h-1.31V6.56z"/>
	<path class="st0" d="M47.22,11.81h1.31v2.62h-1.31V11.81z"/>
	<path class="st0" d="M51.16,11.81h1.31v2.62h-1.31V11.81z"/>
	<path class="st0" d="M47.22,17.05h1.31v2.62h-1.31V17.05z"/>
	<path class="st0" d="M51.16,17.05h1.31v2.62h-1.31V17.05z"/>
	<path class="st0" d="M35.42,22.3h1.31v2.62h-1.31V22.3z"/>
	<path class="st0" d="M39.35,22.3h1.31v2.62h-1.31V22.3z"/>
	<path class="st0" d="M35.42,27.55h1.31v2.62h-1.31V27.55z"/>
	<path class="st0" d="M39.35,27.55h1.31v2.62h-1.31V27.55z"/>
	<path class="st0" d="M35.42,32.79h1.31v2.62h-1.31V32.79z"/>
	<path class="st0" d="M39.35,32.79h1.31v2.62h-1.31V32.79z"/>
	<path class="st0" d="M47.22,22.3h1.31v2.62h-1.31V22.3z"/>
	<path class="st0" d="M51.16,22.3h1.31v2.62h-1.31V22.3z"/>
	<path class="st0" d="M26.24,20.99h-1.31v-1.31H22.3v1.31h-1.31c-0.73,0-1.31,0.59-1.31,1.31v3.94c0,0.72,0.59,1.31,1.31,1.31h3.94
		v1.31h-5.25v1.31c0,0.72,0.59,1.31,1.31,1.31h1.31v1.31h2.62v-1.31h1.31c0.73,0,1.31-0.59,1.31-1.31v-3.94
		c0-0.72-0.59-1.31-1.31-1.31H22.3v-1.31h5.25V22.3C27.55,21.58,26.96,20.99,26.24,20.99z"/>
	<path class="st1" d="M66.9,2.62h2.62v2.62H66.9V2.62z"/>
	<path class="st1" d="M69.52,0h2.62v2.62h-2.62V0z"/>
	<path class="st1" d="M72.15,2.62h2.62v2.62h-2.62V2.62z"/>
	<path class="st1" d="M69.52,5.25h2.62v2.62h-2.62V5.25z"/>
	<path class="st0" d="M76.08,9.18h2.62v2.62h-2.62V9.18z"/>
	<path class="st0" d="M66.9,13.12h2.62v2.62H66.9V13.12z"/>
	<path class="st1" d="M0,11.81h2.62v2.62H0V11.81z"/>
	<path class="st1" d="M2.62,9.18h2.62v2.62H2.62V9.18z"/>
	<path class="st1" d="M5.25,11.81h2.62v2.62H5.25V11.81z"/>
	<path class="st1" d="M2.62,14.43h2.62v2.62H2.62V14.43z"/>
	<path class="st0" d="M0,22.3h2.62v2.62H0V22.3z"/>
	<path class="st0" d="M5.25,0h2.62v2.62H5.25V0z"/>
</g>
</svg>
