<?xml version="1.0" encoding="utf-8"?>
<!-- Generator: Adobe Illustrator 23.0.1, SVG Export Plug-In . SVG Version: 6.00 Build 0)  -->
<svg version="1.1" id="Layer_1" xmlns="http://www.w3.org/2000/svg" xmlns:xlink="http://www.w3.org/1999/xlink" x="0px" y="0px"
	 viewBox="0 0 78.71 78.71" style="enable-background:new 0 0 78.71 78.71;" xml:space="preserve">
<style type="text/css">
	.st0{fill:#FFFFFF;}
	.st1{fill:#27B3CA;}
	.st2{stroke:#000000;stroke-width:0.75;stroke-miterlimit:10;}
	.st3{fill:#565656;}
	.st4{fill:#27B3CA;stroke:#27B3CA;stroke-width:0.25;stroke-miterlimit:10;}
</style>
<g>
	<path class="st0" d="M39.35,3.26"/>
	<path class="st1" d="M13.41,46.14c1.32,0,2.39-1.07,2.39-2.39c0-1.32-1.07-2.39-2.39-2.39c-1.32,0-2.39,1.07-2.39,2.39
		C11.02,45.07,12.09,46.14,13.41,46.14L13.41,46.14z M13.41,42.68c0.59,0,1.07,0.48,1.07,1.07c0,0.59-0.48,1.07-1.07,1.07
		c-0.59,0-1.07-0.48-1.07-1.07C12.34,43.16,12.82,42.68,13.41,42.68L13.41,42.68z M13.41,42.68"/>
	<path class="st2" d="M78.26,50.97l-7.37-12.74c-0.91-1.58-2.94-2.12-4.52-1.21l-5.1,2.94c-0.77,0.44-1.31,1.16-1.54,2.01
		c-0.18,0.67-0.14,1.35,0.09,1.98l-3.26,1.87c-0.82,0.47-1.81,0.56-2.7,0.25l-6.67-2.36c-1.46-0.52-3.08-0.54-4.56-0.08l-7.33,2.31
		l-0.42-0.34c-1.67-1.35-3.94-1.7-5.93-0.89l-3.66,1.49c-0.94,0.38-1.98,0.31-2.85-0.2l-3.55-2.05c0.23-0.63,0.27-1.32,0.09-1.99
		c-0.23-0.85-0.78-1.57-1.54-2.01l-5.1-2.94c-1.58-0.91-3.61-0.37-4.52,1.21L0.45,50.97C0,51.73-0.12,52.63,0.11,53.48
		c0.23,0.85,0.78,1.57,1.54,2.01l5.1,2.94c0.52,0.3,1.09,0.44,1.65,0.44c1.14,0,2.26-0.59,2.87-1.65l0.35-0.6l6.8,5.35
		c-0.12,0.55-0.11,1.11,0.06,1.66c0.26,0.86,0.84,1.57,1.62,1.99c0.49,0.26,1.03,0.4,1.58,0.4c0.26,0,0.53-0.04,0.79-0.1
		c-0.08,0.5-0.06,1.02,0.09,1.53c0.26,0.87,0.84,1.58,1.64,2.01c0.51,0.27,1.06,0.4,1.6,0.4c0.3,0,0.59-0.04,0.88-0.12
		c-0.05,0.45-0.01,0.9,0.12,1.35c0.26,0.87,0.84,1.58,1.64,2.01c0.51,0.27,1.06,0.4,1.6,0.4c0.53,0,1.05-0.13,1.52-0.36
		c0.17,0.87,0.7,1.66,1.54,2.11c0.46,0.25,0.95,0.36,1.44,0.36c0.34,0,0.68-0.06,1-0.17l2.46,1.93c0.59,0.48,1.3,0.72,2,0.72
		c0.83,0,1.66-0.33,2.28-0.98c0.53-0.55,0.83-1.24,0.88-1.95l0.1,0.09c1.45,1.18,3.59,0.97,4.77-0.48c0.49-0.6,0.75-1.33,0.79-2.05
		c1.3,0.76,2.99,0.58,4.1-0.5c0.65-0.63,1.02-1.48,1.03-2.38l0.58,0.48c0.73,0.6,1.69,0.87,2.63,0.74c0.95-0.14,1.78-0.65,2.32-1.46
		c0.97-1.43,0.64-3.44-0.76-4.58l-2.69-2.19l10.98-6.3l0.4,0.69c0.61,1.06,1.73,1.65,2.87,1.65c0.56,0,1.13-0.14,1.65-0.44l5.1-2.94
		c0.76-0.44,1.31-1.16,1.54-2.01C78.82,52.63,78.7,51.73,78.26,50.97L78.26,50.97z M10.13,56.56c-0.55,0.95-1.76,1.27-2.71,0.73
		l-5.1-2.95c-0.46-0.26-0.79-0.69-0.93-1.21c-0.14-0.51-0.07-1.05,0.2-1.51l7.37-12.74c0.37-0.64,1.04-0.99,1.72-0.99
		c0.34,0,0.68,0.09,0.99,0.26l5.1,2.94c0.46,0.26,0.79,0.69,0.93,1.21c0.14,0.51,0.07,1.05-0.2,1.51L10.13,56.56z M20.73,64.46
		c-0.48-0.26-0.83-0.68-0.98-1.21c-0.16-0.52-0.1-1.07,0.15-1.55l1.3-2.42c0.37-0.68,1.07-1.07,1.8-1.07c0.32,0,0.65,0.08,0.96,0.24
		c0.48,0.26,0.82,0.68,0.98,1.21c0.16,0.52,0.1,1.07-0.15,1.55l-1.05,1.96l-0.25,0.46C22.96,64.62,21.72,64.99,20.73,64.46
		L20.73,64.46z M24.83,68.3c-0.48-0.26-0.84-0.69-1-1.23c-0.16-0.53-0.1-1.09,0.15-1.57l0.67-1.24h0l0.6-1.12l0.63-1.16
		c0.37-0.69,1.09-1.09,1.82-1.09c0.33,0,0.66,0.08,0.97,0.24c0.48,0.26,0.84,0.7,1,1.23c0.16,0.53,0.1,1.09-0.16,1.57l-1.89,3.52
		C27.09,68.46,25.83,68.83,24.83,68.3L24.83,68.3z M29.07,71.94c-0.48-0.26-0.84-0.7-1-1.23c-0.16-0.53-0.11-1.09,0.15-1.57
		l1.89-3.53c0.37-0.69,1.09-1.09,1.82-1.09c0.33,0,0.66,0.08,0.97,0.25c0.48,0.26,0.84,0.7,1,1.23c0.16,0.53,0.1,1.09-0.16,1.57
		l-0.21,0.4c-0.01,0.02-0.02,0.03-0.03,0.05l-1.66,3.1c0,0.01,0,0.01-0.01,0.02C31.29,72.11,30.06,72.47,29.07,71.94L29.07,71.94z
		 M33.72,74.09c-0.84-0.45-1.15-1.49-0.72-2.33c0.01-0.01,0.02-0.03,0.03-0.04l1.67-3.11c0.32-0.56,0.9-0.88,1.51-0.88
		c0.28,0,0.56,0.07,0.82,0.21c0.84,0.45,1.16,1.51,0.71,2.35l-1.66,3.1C35.62,74.22,34.56,74.54,33.72,74.09L33.72,74.09z
		 M41.32,76.2c-0.67,0.7-1.75,0.76-2.51,0.15l-2.09-1.64c0.2-0.2,0.37-0.43,0.51-0.69l1.48-2.76l2.52,2.28l0.16,0.19
		C42.02,74.44,41.99,75.51,41.32,76.2L41.32,76.2z M58.4,68.86c-0.33,0.49-0.84,0.81-1.42,0.89c-0.57,0.08-1.16-0.08-1.6-0.45
		L42.78,58.68c-0.28-0.24-0.7-0.2-0.93,0.08c-0.24,0.28-0.2,0.7,0.08,0.93l9.58,8.1l0.49,0.47c0.41,0.4,0.64,0.93,0.64,1.5
		c0,0.57-0.22,1.11-0.63,1.5c-0.79,0.76-2.04,0.79-2.86,0.06l-10.4-9.22c-0.27-0.24-0.69-0.22-0.93,0.06
		c-0.24,0.27-0.22,0.69,0.06,0.93l9.06,8.02c0.73,0.72,0.76,1.98,0.08,2.82c-0.72,0.88-2.03,1.01-2.9,0.3l-4.89-4.32
		c0.06-0.44,0.04-0.89-0.09-1.33c-0.24-0.78-0.76-1.43-1.48-1.81c-0.7-0.37-1.47-0.44-2.18-0.26l-0.15-0.14
		c-0.02-0.25-0.06-0.51-0.13-0.76c-0.26-0.87-0.84-1.58-1.64-2.01c-0.76-0.41-1.64-0.5-2.48-0.28c0.05-0.45,0.01-0.91-0.12-1.36
		c-0.26-0.87-0.84-1.58-1.64-2.01c-0.96-0.51-2.06-0.51-2.98-0.09c-0.02-0.2-0.06-0.39-0.12-0.59c-0.26-0.86-0.84-1.57-1.62-1.99
		c-1.63-0.88-3.67-0.26-4.54,1.37l-1.09,2.04l-6.65-5.23l5.97-10.33l3.51,2.03c1.23,0.71,2.7,0.81,4.02,0.28l3.66-1.49
		c1.43-0.58,3.05-0.39,4.31,0.48l-5.69,1.79c-1.87,0.59-2.92,2.6-2.34,4.47c0.57,1.86,2.5,2.92,4.38,2.39l10.69-2.97L57.9,66.04
		C58.77,66.75,58.99,67.99,58.4,68.86L58.4,68.86z M54.95,61.93L41.37,50.88c-0.12-0.1-0.27-0.15-0.42-0.15
		c-0.06,0-0.12,0.01-0.18,0.02l-11.03,3.06c-1.19,0.33-2.4-0.33-2.76-1.51c-0.37-1.18,0.3-2.44,1.48-2.82l14.56-4.59
		c1.21-0.38,2.53-0.36,3.72,0.06l6.67,2.36c1.26,0.44,2.65,0.32,3.8-0.35l3.22-1.84l5.82,10.06l0.11,0.2L54.95,61.93z M77.31,53.14
		c-0.14,0.51-0.47,0.94-0.93,1.21l-5.1,2.94c-0.95,0.55-2.16,0.22-2.71-0.73l-7.37-12.74c-0.27-0.46-0.34-0.99-0.2-1.51
		c0.14-0.51,0.47-0.94,0.92-1.21l5.1-2.94c0.31-0.18,0.65-0.27,0.99-0.27c0.69,0,1.35,0.36,1.72,0.99l7.37,12.74
		C77.38,52.09,77.45,52.63,77.31,53.14L77.31,53.14z M77.31,53.14"/>
	<path class="st1" d="M65.3,41.36c-1.32,0-2.39,1.07-2.39,2.39c0,1.32,1.07,2.39,2.39,2.39c1.32,0,2.39-1.07,2.39-2.39
		C67.69,42.43,66.62,41.36,65.3,41.36L65.3,41.36z M65.3,44.82c-0.59,0-1.07-0.48-1.07-1.07c0-0.59,0.48-1.07,1.07-1.07
		c0.59,0,1.07,0.48,1.07,1.07C66.37,44.34,65.89,44.82,65.3,44.82L65.3,44.82z M65.3,44.82"/>
	<path class="st2" d="M39.35,41.05c11.15,0,20.22-9.07,20.22-20.22S50.5,0.61,39.35,0.61S19.14,9.68,19.14,20.83
		S28.21,41.05,39.35,41.05L39.35,41.05z M39.35,1.93c10.42,0,18.89,8.48,18.89,18.89s-8.48,18.89-18.89,18.89
		s-18.89-8.48-18.89-18.89S28.94,1.93,39.35,1.93L39.35,1.93z M39.35,1.93"/>
	<path class="st3" d="M42.99,31.48h-6.4c-0.37,0-0.66,0.3-0.66,0.66c0,0.37,0.3,0.66,0.66,0.66h6.4c0.37,0,0.66-0.3,0.66-0.66
		C43.65,31.77,43.36,31.48,42.99,31.48L42.99,31.48z M42.99,31.48"/>
	<path class="st4" d="M29.89,32.8h3.84c0.37,0,0.66-0.3,0.66-0.66c0-0.37-0.3-0.66-0.66-0.66h-3.84c-0.37,0-0.66-0.3-0.66-0.66
		v-6.75c0-1.82,1.48-3.31,3.31-3.31h2.64c1.19,0.81,2.63,1.28,4.17,1.28c1.55,0,2.98-0.47,4.17-1.28h2.64
		c1.82,0,3.31,1.48,3.31,3.31v6.75c0,0.37-0.3,0.66-0.66,0.66h-2.95c-0.37,0-0.66,0.3-0.66,0.66c0,0.37,0.3,0.66,0.66,0.66h2.95
		c1.09,0,1.98-0.89,1.98-1.98v-6.75c0-2.55-2.08-4.63-4.63-4.63H45c1.11-1.29,1.79-2.97,1.79-4.81c0-4.08-3.34-7.41-7.44-7.41
		c-4.1,0-7.44,3.32-7.44,7.41c0,1.83,0.68,3.51,1.79,4.81h-1.16c-2.55,0-4.63,2.08-4.63,4.63v6.75C27.91,31.91,28.8,32.8,29.89,32.8
		L29.89,32.8z M39.35,8.54c3.37,0,6.11,2.73,6.11,6.08c0,3.35-2.74,6.08-6.11,6.08c-3.37,0-6.11-2.73-6.11-6.08
		C33.24,11.27,35.98,8.54,39.35,8.54L39.35,8.54z M39.35,8.54"/>
</g>
</svg>
