<?xml version="1.0" encoding="utf-8"?>
<!-- Generator: Adobe Illustrator 23.0.1, SVG Export Plug-In . SVG Version: 6.00 Build 0)  -->
<svg version="1.1" id="Layer_1" xmlns="http://www.w3.org/2000/svg" xmlns:xlink="http://www.w3.org/1999/xlink" x="0px" y="0px"
	 viewBox="0 0 150 150" style="enable-background:new 0 0 150 150;" xml:space="preserve">
<style type="text/css">
	.st0{clip-path:url(#SVGID_2_);}
</style>
<g>
	<g>
		<defs>
			<rect id="SVGID_1_" width="150" height="150"/>
		</defs>
		<clipPath id="SVGID_2_">
			<use xlink:href="#SVGID_1_"  style="overflow:visible;"/>
		</clipPath>
		<path class="st0" d="M139.84,64.96c-4.8-0.01-8.95,3.35-9.95,8.05h-13.62c-0.49-9.52-4.28-18.57-10.71-25.6l9.65-9.64
			c4.31,2.85,10.07,2,13.36-1.98c3.29-3.98,3.06-9.8-0.54-13.49c-3.6-3.7-9.41-4.09-13.48-0.9c-4.06,3.19-5.07,8.92-2.33,13.3
			l-9.72,9.72c-7.08-6.34-16.14-10.04-25.64-10.46V20.34c5.11-0.94,8.68-5.58,8.28-10.76c-0.39-5.18-4.63-9.22-9.82-9.38
			c-5.19-0.16-9.66,3.62-10.38,8.77c-0.71,5.14,2.57,9.99,7.61,11.25V34c-9.41,0.55-18.34,4.32-25.31,10.67l-9.65-9.65
			c2.91-4.3,2.1-10.1-1.86-13.45c-3.97-3.35-9.82-3.17-13.57,0.42c-3.75,3.59-4.19,9.43-1.02,13.54c3.17,4.11,8.93,5.17,13.35,2.46
			l9.73,9.7c-6.35,7.07-10.05,16.13-10.47,25.63H20.22c-0.92-4.81-5.11-8.31-10.01-8.36c-3.64-0.02-7.02,1.91-8.84,5.06
			c-1.83,3.15-1.83,7.04,0,10.19c1.83,3.15,5.2,5.08,8.84,5.06c4.67,0.07,8.77-3.12,9.85-7.67H33.8c0.53,9.4,4.28,18.33,10.63,25.29
			l-9.59,9.61c-4.34-2.92-10.19-2.1-13.56,1.91c-3.36,4.01-3.16,9.91,0.47,13.68c3.63,3.77,9.52,4.19,13.66,0.98
			c4.13-3.21,5.18-9.03,2.42-13.48l9.65-9.65c7.01,6.31,15.98,10.02,25.4,10.51v13.56c-5.08,1.1-8.51,5.85-7.96,11.01
			c0.55,5.17,4.91,9.08,10.11,9.08c5.19,0,9.55-3.92,10.11-9.08c0.55-5.16-2.88-9.92-7.96-11.01v-13.56
			c9.5-0.49,18.54-4.26,25.58-10.67l9.6,9.6c-2.85,4.34-1.97,10.14,2.04,13.44c4.01,3.3,9.87,3.04,13.58-0.6
			c3.71-3.64,4.07-9.49,0.84-13.57s-9.01-5.06-13.4-2.28l-9.64-9.67c6.32-7.01,10.02-15.99,10.49-25.42h13.65
			c1.15,5.2,6.12,8.64,11.39,7.87c5.27-0.77,9.05-5.48,8.67-10.79C149.59,69.07,145.16,64.95,139.84,64.96L139.84,64.96z
			 M116.71,25.18c2.29-2.29,6-2.29,8.29,0c2.29,2.29,2.29,6,0,8.29c-1.48,1.5-3.65,2.09-5.68,1.55c-2.03-0.54-3.62-2.13-4.16-4.16
			C114.62,28.82,115.21,26.66,116.71,25.18L116.71,25.18z M33.34,33.47c-2.29,2.29-6,2.29-8.29,0c-2.29-2.29-2.29-6,0-8.29
			c2.29-2.29,6-2.29,8.29,0C35.64,27.47,35.64,31.18,33.34,33.47L33.34,33.47z M10.21,81.02c-3.24,0-5.87-2.63-5.87-5.87
			c0-3.24,2.63-5.87,5.87-5.87s5.87,2.63,5.87,5.87C16.08,78.39,13.45,81.02,10.21,81.02L10.21,81.02z M33.34,125.13
			c-2.29,2.29-6,2.29-8.29,0c-2.29-2.29-2.29-6,0-8.29c2.21-2.21,5.76-2.3,8.07-0.21c0.15,0.24,0.36,0.45,0.6,0.61
			C35.65,119.58,35.49,122.99,33.34,125.13L33.34,125.13z M116.71,116.84c2.29-2.29,6-2.29,8.29,0c2.29,2.29,2.29,6,0,8.29
			c-2.29,2.29-6,2.29-8.29,0C114.41,122.84,114.41,119.13,116.71,116.84L116.71,116.84z M69.16,10.34c0-3.24,2.63-5.87,5.87-5.87
			c3.24,0,5.87,2.63,5.87,5.87c0,3.24-2.63,5.87-5.87,5.87C71.79,16.21,69.16,13.58,69.16,10.34L69.16,10.34z M80.89,139.96
			c0,3.18-2.53,5.79-5.72,5.87c-3.18,0.08-5.85-2.39-6.01-5.57c-0.16-3.18,2.25-5.91,5.43-6.14c0.29,0.06,0.58,0.06,0.87,0
			C78.52,134.35,80.89,136.9,80.89,139.96L80.89,139.96z M75.03,112.23c-20.44,0-37.01-16.57-37.01-37c0-20.44,16.57-37,37.01-37
			c20.44,0,37,16.57,37,37C112.01,95.65,95.45,112.2,75.03,112.23L75.03,112.23z M139.84,81.02c-3.24,0-5.87-2.63-5.87-5.87
			c0-3.24,2.62-5.87,5.87-5.87c3.24,0,5.87,2.63,5.87,5.87C145.7,78.39,143.07,81.02,139.84,81.02L139.84,81.02z M139.84,81.02"/>
	</g>
	<path d="M100.66,59.11L76.1,44.93c-0.67-0.38-1.49-0.38-2.15,0L49.39,59.11c-0.67,0.38-1.08,1.09-1.07,1.86v28.36
		c0,0.77,0.41,1.48,1.07,1.86l24.56,14.18c0.66,0.38,1.48,0.38,2.15,0l24.56-14.18c0.67-0.38,1.07-1.09,1.07-1.86V60.98
		C101.73,60.21,101.33,59.5,100.66,59.11L100.66,59.11z M75.03,49.28l7.74,4.47l-20.26,11.7l-7.74-4.47L75.03,49.28z M72.88,99.79
		l-20.26-11.7V64.7l20.26,11.7V99.79z M75.03,72.67l-8.22-4.75l20.26-11.69l8.23,4.75L75.03,72.67z M97.44,88.09l-20.26,11.7v-23.4
		l20.26-11.7V88.09z M97.44,88.09"/>
</g>
</svg>
