<?xml version="1.0" encoding="utf-8"?>
<!-- Generator: Adobe Illustrator 23.0.1, SVG Export Plug-In . SVG Version: 6.00 Build 0)  -->
<svg version="1.1" id="Layer_1" xmlns="http://www.w3.org/2000/svg" xmlns:xlink="http://www.w3.org/1999/xlink" x="0px" y="0px"
	 viewBox="0 0 78.71 78.71" style="enable-background:new 0 0 78.71 78.71;" xml:space="preserve">
<style type="text/css">
	.st0{fill:#27B3CA;}
</style>
<g>
	<g>
		<path d="M56.74,46.09H21.95l-0.08-0.85c-0.31-3.24,1.78-5.98,5.44-7.14c1.87-0.59,3.8-1.25,5.75-1.95
			c0.67-0.24,1.09-0.56,1.19-0.9c0.1-0.35-0.1-0.86-0.56-1.44c-2.71-3.42-3.57-7.12-2.57-10.98c1.11-4.27,4.62-6.78,8.94-6.39
			c4.35,0.4,7.43,3.5,7.84,7.91c0.33,3.52-0.65,6.71-2.89,9.46c-0.46,0.56-0.66,1.07-0.57,1.41c0.09,0.34,0.52,0.67,1.2,0.92
			c1.27,0.47,2.57,0.93,3.83,1.38c1.08,0.38,2.17,0.77,3.25,1.16c2.67,0.97,4.4,3.73,4.11,6.55L56.74,46.09z M23.75,44.2h31.2
			c-0.17-1.66-1.28-3.16-2.88-3.74c-1.08-0.39-2.15-0.77-3.23-1.16c-1.26-0.45-2.57-0.91-3.85-1.38c-1.62-0.6-2.18-1.52-2.37-2.19
			c-0.18-0.67-0.17-1.75,0.92-3.1c1.92-2.36,2.75-5.08,2.47-8.1c-0.32-3.46-2.73-5.9-6.13-6.21c-3.4-0.31-6.06,1.6-6.94,4.99
			c-0.85,3.26-0.1,6.4,2.22,9.33c1.08,1.37,1.08,2.46,0.89,3.13c-0.19,0.66-0.75,1.58-2.36,2.16c-1.97,0.71-3.93,1.37-5.82,1.97
			C25.42,40.67,23.93,42.25,23.75,44.2z"/>
	</g>
	<g>
		<path d="M39.53,62.29c-9.99,0-19.98,0.03-29.97-0.01c-6-0.02-10.25-4.72-9.47-10.36c0.63-4.51,4.58-7.64,9.62-7.63
			c19.81,0.02,39.62,0.04,59.44,0.07c4.86,0.01,8.82,3.23,9.46,7.64c0.81,5.63-3.33,10.27-9.27,10.28
			C59.4,62.31,49.47,62.29,39.53,62.29z M39.37,60.15C39.37,60.16,39.37,60.16,39.37,60.15c7.44,0.01,14.87,0.01,22.31,0.01
			c2.78,0,5.57,0.07,8.34-0.04c3.83-0.15,6.6-3.11,6.57-6.86c-0.04-3.96-3.27-6.8-7.79-6.81c-19.58-0.01-39.16,0-58.75,0
			c-0.51,0-1.02-0.01-1.53,0.04c-3.72,0.35-6.36,3.13-6.4,6.72c-0.05,3.94,3.11,6.92,7.46,6.94C19.5,60.17,29.44,60.15,39.37,60.15z
			"/>
	</g>
	<g>
		<path d="M8.57,46.2c-0.53,0-1.57-0.09-2.08-1.06c-0.27-0.51-0.28-1.05-0.27-1.41c0.11-3.16,2.77-5.48,5.2-6.31
			c1.35-0.46,2.65-0.96,3.87-1.49c0.54-0.23,0.87-0.51,0.94-0.78c0.07-0.28-0.1-0.71-0.49-1.19c-2.3-2.91-3.1-6.09-2.39-9.47
			c0.85-4.04,4.08-6.44,8.22-6.11c3.91,0.31,6.82,3.37,7.07,7.46c0.18,2.95-0.66,5.63-2.49,7.97c-0.7,0.9-0.67,1.27-0.64,1.37
			c0.03,0.09,0.19,0.41,1.2,0.8c0.43,0.16,0.85,0.32,1.24,0.47l2.26,0.86l-1.61,1.01c-0.47,0.29-0.93,0.58-1.4,0.86
			c-1.04,0.64-2.03,1.24-2.98,1.91c-1.22,0.86-1.56,2.21-1.74,4.25l-0.07,0.86h-3.8c-0.95,0-1.9-0.01-2.85-0.01
			c-2.3-0.01-4.68-0.03-7.02,0.04C8.71,46.2,8.64,46.2,8.57,46.2z M20.84,20.23c-2.89,0-5.03,1.74-5.64,4.64
			c-0.59,2.81,0.09,5.47,2.02,7.91c0.78,0.99,1.06,1.94,0.84,2.83c-0.22,0.88-0.9,1.57-2.02,2.05c-1.27,0.55-2.62,1.07-4.02,1.55
			c-1.89,0.64-3.84,2.42-3.92,4.59c-0.01,0.23,0.01,0.39,0.05,0.47c0.01,0,0.11,0.06,0.54,0.04c2.37-0.07,4.76-0.05,7.08-0.04
			c0.95,0.01,1.89,0.01,2.84,0.01h2.08c0.22-1.74,0.72-3.55,2.44-4.76c0.92-0.65,1.89-1.24,2.83-1.82c-1.29-0.5-2.04-1.16-2.28-2.02
			c-0.33-1.18,0.4-2.3,0.97-3.04c1.54-1.97,2.25-4.22,2.09-6.69c-0.19-3.17-2.34-5.46-5.33-5.69
			C21.23,20.24,21.04,20.23,20.84,20.23z"/>
	</g>
	<g>
		<path d="M58.22,46.19c-1.36,0-1.62-0.16-1.8-0.75c-0.7-2.22-1.02-3.24-1.75-4.05c-0.77-0.85-2.11-1.6-4.79-3.09L48,37.26
			l2.05-0.67c0.26-0.08,0.51-0.16,0.74-0.24c0.48-0.15,0.89-0.28,1.3-0.43c0.6-0.22,1-0.49,1.07-0.76c0.08-0.26-0.1-0.7-0.5-1.2
			c-2.41-3.09-3.19-6.39-2.31-9.8c1.02-3.94,4.2-6.15,8.3-5.76c3.73,0.35,6.49,3.21,6.86,7.1c0.29,3.12-0.56,5.96-2.55,8.45
			c-0.39,0.49-0.56,0.92-0.48,1.22c0.08,0.3,0.44,0.6,1.01,0.84c1.73,0.72,3.47,1.46,5.2,2.21c1.96,0.85,3.6,3.06,3.81,5.15
			c0.08,0.78-0.06,1.53-0.4,2.15c-0.04,0.07-0.16,0.3-0.42,0.45l-0.01,0.01c-0.27,0.16-0.53,0.16-0.63,0.16
			c-1.55-0.02-3.12-0.01-4.65-0.01c-0.72,0-1.43,0-2.15,0h-3.47c-0.06,0-0.25,0.01-0.5,0.01C59.41,46.16,58.74,46.19,58.22,46.19z
			 M58.22,44.85c0,0.01,0.01,0.02,0.01,0.04C58.23,44.88,58.22,44.87,58.22,44.85z M58.04,44.29c0.66,0,1.75-0.03,2.19-0.05
			c0.28-0.01,0.49-0.02,0.56-0.02h3.47c0.72,0,1.43,0,2.15,0c1.38,0,2.79-0.01,4.2,0c0.05-0.21,0.06-0.44,0.04-0.68
			c-0.15-1.41-1.35-3.03-2.68-3.61c-1.72-0.74-3.46-1.48-5.17-2.2c-1.45-0.61-1.95-1.48-2.11-2.11C60.5,35,60.51,34,61.5,32.76
			c1.69-2.12,2.39-4.45,2.14-7.1c-0.28-2.96-2.35-5.13-5.15-5.4c-3.15-0.3-5.51,1.33-6.29,4.36c-0.74,2.85-0.1,5.53,1.97,8.17
			c0.8,1.03,1.08,2,0.82,2.89c-0.26,0.89-1.01,1.57-2.25,2.01c-0.02,0.01-0.04,0.01-0.06,0.02C56.42,39.86,56.85,40.55,58.04,44.29z
			"/>
	</g>
	<g>
		<path class="st0" d="M35.66,58.42c0.03,0.01,0.56-1.35,0.6-1.48c0.15-0.52,0.23-1.1,0.18-1.64c-0.12-1.42-1.3-2.18-2.4-2.88
			c-0.27-0.17-0.83-0.5-0.22-0.66c0.93-0.24,1.87-0.21,2.81-0.25c0.32-0.01,0.65-0.03,0.92-0.21c0.29-0.19,0.43-0.53,0.56-0.86
			c0.4-1,0.79-1.99,1.19-2.99c0.24,0.89,0.49,1.79,0.95,2.59c0.38,0.66,1.06,1.48,1.85,1.66c0.95,0.22,1.93,0.02,2.86,0.17
			c-0.56,0.14-0.91,0.62-1.33,0.97c-0.54,0.45-0.97,1.01-1.19,1.68c-0.27,0.79-0.24,1.68,0.06,2.46c0.19,0.47,0.48,0.91,0.6,1.4
			c-0.53-0.09-1.02-0.3-1.54-0.4c-0.54-0.11-1.08-0.17-1.63-0.19c-0.76-0.03-1.53,0.02-2.28,0.16
			C37.04,58.06,36.28,58.53,35.66,58.42z"/>
	</g>
	<g>
		<path class="st0" d="M8.04,58.29c0-0.01,0-0.02,0-0.03c0.01-0.16,0.06-0.32,0.11-0.48c0.29-0.96,0.91-2.18,0.58-3.2
			c-0.42-1.31-2.24-2.19-3.23-3.02c0.83,0.08,1.68,0.16,2.51,0.06c0.83-0.1,1.66-0.41,2.26-0.99c0.83-0.81,1.09-2.02,1.2-3.17
			c-0.06,0.64,0.5,1.63,0.8,2.17c0.34,0.61,0.73,1.17,1.3,1.57c1.12,0.79,2.56,0.76,3.85,0.49c-0.59,0.12-1.39,0.95-1.81,1.37
			c-0.46,0.46-0.85,1.01-1.06,1.64c-0.2,0.61-0.19,1.25-0.03,1.86c0.09,0.36,0.24,0.7,0.41,1.03c0.26,0.49,0.48,0.57-0.08,0.85
			c-0.98-0.81-2.12-1.59-3.39-1.56c-0.7,0.02-1.36,0.28-1.93,0.67c-0.5,0.34-1.06,0.75-1.39,1.26C8.06,58.64,8.03,58.46,8.04,58.29z
			"/>
	</g>
	<g>
		<path class="st0" d="M72.86,52.06c-0.11,0.15-0.38,0.27-0.5,0.33c-1.38,0.63-2.49,1.86-2.33,3.47c0.09,0.95,0.6,1.8,0.85,2.72
			c-0.77-0.2-1.4-0.59-2-1.09c-0.47-0.39-1.14-1.04-1.8-1c-0.18,0.01-0.33,0.11-0.48,0.21c-0.52,0.34-1.05,0.69-1.57,1.05
			c-0.33,0.22-0.82,0.72-1.23,0.77c-0.17,0.02-0.34,0.04-0.5,0.06c0.32-0.04,0.76-1.91,0.82-2.21c0.22-1.14-0.07-2.34-0.96-3.12
			c-0.45-0.4-0.99-0.69-1.53-0.96c-0.09-0.05-0.2-0.1-0.23-0.2c-0.07-0.21,0.2-0.37,0.41-0.41c0.61-0.12,1.23-0.07,1.85-0.09
			c0.62-0.02,1.26-0.13,1.75-0.51c0.77-0.6,0.77-1.56,1.18-2.36c0.17-0.34,0.32-0.75,0.55-1.05c-0.14,0.19,0.52,1.39,0.6,1.61
			c0.31,0.76,0.61,1.59,1.33,2.06c0.48,0.31,1.07,0.41,1.64,0.41c0.57,0,1.14-0.07,1.71-0.06c0.12,0,0.25,0.01,0.36,0.07
			C72.94,51.85,72.94,51.96,72.86,52.06z"/>
	</g>
	<g>
		<path class="st0" d="M25.75,47.56c0.17,1.28,0.46,2.67,1.56,3.49c1.17,0.87,2.52,0.59,3.84,0.42c0.24,0.63-1.28,1.35-1.68,1.67
			c-0.62,0.49-1.19,1.11-1.22,1.94c-0.02,0.57,0.15,1.13,0.34,1.67c0.19,0.54,0.41,1.07,0.49,1.64c0.01,0.06,0.01,0.13-0.04,0.16
			c-0.04,0.02-0.08,0.01-0.12,0c-0.72-0.23-1.32-0.73-1.92-1.18c-0.4-0.3-0.82-0.63-1.31-0.7c-0.53-0.07-1.06,0.18-1.49,0.5
			c-0.74,0.54-1.42,1.24-2.33,1.5c0.08-1.36,1.2-2.72,0.73-4.12c-0.2-0.61-0.72-1.05-1.24-1.4c-0.44-0.3-1.06-0.5-1.35-0.97
			c-0.23-0.37-0.09-0.41,0.33-0.51c0.89-0.21,1.82,0.07,2.71-0.16c1.04-0.27,1.38-1.26,1.69-2.18c0.12-0.35,0.23-0.69,0.35-1.04
			C25.19,47.9,25.38,47.68,25.75,47.56z"/>
	</g>
	<g>
		<path class="st0" d="M47.51,51.45c3.38,0.84,5.12-0.56,5.81-3.73c0.52,1.2,0.75,2.8,1.66,3.49c0.87,0.65,2.45,0.36,4.08,0.51
			c-1.18,1.09-2.61,1.81-2.96,2.89c-0.34,1.04,0.42,2.45,0.62,4.03c-2.34-2.43-4.63-2.48-7.03-0.27c0.27-1.29,1.03-2.72,0.68-3.82
			c-0.33-1.05-1.8-1.74-2.76-2.58C47.58,51.79,47.54,51.62,47.51,51.45z"/>
	</g>
</g>
</svg>
