<?xml version="1.0" encoding="utf-8"?>
<!-- Generator: Adobe Illustrator 23.0.1, SVG Export Plug-In . SVG Version: 6.00 Build 0)  -->
<svg version="1.1" id="Layer_1" xmlns="http://www.w3.org/2000/svg" xmlns:xlink="http://www.w3.org/1999/xlink" x="0px" y="0px"
	 viewBox="0 0 150 150" style="enable-background:new 0 0 150 150;" xml:space="preserve">
<style type="text/css">
	.st0{fill:#231F20;}
</style>
<g>
	<g>
		<path d="M96.81,138.48H53.19c-2.89,0-5.61-1.13-7.66-3.17L14.7,104.46c-2.04-2.04-3.17-4.76-3.17-7.65V53.19
			c0-2.89,1.13-5.61,3.17-7.65L45.54,14.7c2.04-2.04,4.76-3.17,7.65-3.17h43.62c2.89,0,5.61,1.13,7.65,3.17l30.84,30.84
			c2.05,2.04,3.17,4.76,3.17,7.65v43.62c0,2.89-1.13,5.61-3.17,7.66l-30.84,30.84C102.42,137.35,99.7,138.48,96.81,138.48z
			 M53.19,15.6c-1.8,0-3.5,0.7-4.77,1.98L17.58,48.42c-1.28,1.28-1.98,2.97-1.98,4.77v43.62c0,1.8,0.7,3.5,1.98,4.77l30.84,30.84
			c1.28,1.28,2.97,1.98,4.77,1.98h43.62c1.8,0,3.5-0.7,4.77-1.98l30.84-30.84c1.28-1.27,1.98-2.97,1.98-4.77V53.19
			c0-1.8-0.7-3.5-1.98-4.77l-30.84-30.84c-1.27-1.28-2.97-1.98-4.77-1.98H53.19z"/>
	</g>
	<g>
		<path class="st0" d="M43.17,48.1h6.79v46.93h22.49v5.7H43.17V48.1z"/>
		<path class="st0" d="M113.76,99.01c-2.5,1.25-7.5,2.58-13.9,2.58c-14.84,0-26.01-9.45-26.01-26.71
			c0-16.48,11.17-27.64,27.49-27.64c6.56,0,10.7,1.41,12.5,2.34l-1.64,5.54c-2.58-1.25-6.25-2.19-10.62-2.19
			c-12.34,0-20.54,7.89-20.54,21.71c0,12.88,7.42,21.16,20.23,21.16c4.14,0,8.36-0.86,11.09-2.19L113.76,99.01z"/>
	</g>
</g>
</svg>
