<?xml version="1.0" encoding="utf-8"?>
<!-- Generator: Adobe Illustrator 23.0.1, SVG Export Plug-In . SVG Version: 6.00 Build 0)  -->
<svg version="1.1" id="Layer_1" xmlns="http://www.w3.org/2000/svg" xmlns:xlink="http://www.w3.org/1999/xlink" x="0px" y="0px"
	 viewBox="0 0 150 150" style="enable-background:new 0 0 150 150;" xml:space="preserve">
<style type="text/css">
	.st0{clip-path:url(#SVGID_2_);}
</style>
<g>
	<g>
		<g>
			<defs>
				<rect id="SVGID_1_" x="13.65" y="5.21" width="122.71" height="139.58"/>
			</defs>
			<clipPath id="SVGID_2_">
				<use xlink:href="#SVGID_1_"  style="overflow:visible;"/>
			</clipPath>
			<path class="st0" d="M54.4,91.24H24.24c-5.68-0.01-10.29-4.61-10.3-10.3V43.33c0.01-5.68,4.61-10.29,10.3-10.3H54.4
				c1.1,0,1.99,0.89,1.99,1.99v54.22C56.39,90.35,55.5,91.24,54.4,91.24L54.4,91.24z M24.24,37.02c-3.49,0-6.31,2.83-6.32,6.32
				v37.61c0.01,3.48,2.83,6.3,6.32,6.31h28.17V37.02H24.24z M24.24,37.02"/>
			<path class="st0" d="M108.39,118.93c-1.54,0-3.06-0.38-4.42-1.11L53.47,91c-0.65-0.35-1.06-1.02-1.06-1.76V35.03
				c0-0.74,0.41-1.41,1.06-1.76l50.51-26.81c2.92-1.55,6.43-1.45,9.26,0.25c2.83,1.7,4.56,4.76,4.56,8.07v94.72
				C117.79,114.69,113.59,118.9,108.39,118.93L108.39,118.93z M56.39,88.05l49.45,26.25c1.68,0.89,3.71,0.84,5.35-0.14
				c1.63-0.98,2.63-2.75,2.63-4.66V14.78c0-1.91-1-3.67-2.63-4.66c-1.63-0.98-3.66-1.04-5.35-0.14L56.39,36.23V88.05z M56.39,88.05"
				/>
		</g>
		<path d="M115.81,82.38c-2.65,0-2.65-3.98,0-3.98c8.98,0,16.27-7.28,16.27-16.27s-7.28-16.26-16.27-16.26c-2.65,0-2.65-3.98,0-3.98
			c11.18,0,20.25,9.06,20.25,20.24C136.06,73.32,126.99,82.38,115.81,82.38L115.81,82.38z M115.81,82.38"/>
		<path d="M48.1,144.64H31.11c-2.2-0.01-4.02-1.72-4.16-3.92l-3.3-51.36c-0.07-1.1,0.76-2.05,1.86-2.12
			c1.1-0.07,2.05,0.76,2.12,1.86l3.3,51.37c0.01,0.1,0.09,0.18,0.19,0.18h16.99l2.17-0.32l-1.99,0.13L45,89.37
			c-0.07-1.1,0.76-2.05,1.86-2.12c1.1-0.07,2.05,0.76,2.12,1.86l3.28,51.11c0.07,1.15-0.34,2.28-1.13,3.11
			C50.35,144.17,49.25,144.64,48.1,144.64L48.1,144.64z M48.1,144.64"/>
	</g>
	<g>
		<path d="M84.72,40.78c-10.07,0-19.48,6.45-21.83,16.16c-1.44,5.95-1.46,8.34-0.32,13.46c2.17,9.75,12.07,16.02,22.15,16.02
			c12.58,0,22.82-10.24,22.82-22.82C107.54,51.01,97.3,40.78,84.72,40.78L84.72,40.78z M84.72,82.42c-8.56,0-15.94-5.81-18.21-14.05
			c-0.72-2.59-0.9-5.73,0-9.56c1.95-8.32,9.65-14.04,18.21-14.04c10.38,0,18.83,8.45,18.83,18.83S95.1,82.42,84.72,82.42
			L84.72,82.42z M84.72,82.42"/>
		<path d="M87.76,61.89c-0.32-0.12-0.64-0.24-0.96-0.36v-6.23c1.64,0.48,2.78,1.39,2.82,1.42c0.84,0.7,2.1,0.59,2.8-0.25
			c0.71-0.84,0.6-2.1-0.24-2.81c-0.13-0.11-2.29-1.89-5.39-2.46v-1.96c0-1.1-0.89-1.99-2-1.99c-1.1,0-1.99,0.89-1.99,1.99v2.01
			c-0.25,0.05-0.51,0.12-0.76,0.19c-2.68,0.81-4.57,2.91-4.94,5.48c-0.34,2.4,0.69,4.71,2.71,6.02c0.09,0.06,0.18,0.11,0.28,0.15
			c0.07,0.03,1.15,0.51,2.71,1.15v7.59c-1.36-0.4-2.58-1.14-3.48-2.13c-0.74-0.82-2-0.88-2.82-0.14c-0.82,0.74-0.88,2-0.14,2.82
			c1.63,1.8,3.94,3.05,6.44,3.55v2.03c0,1.1,0.89,2,1.99,2c1.1,0,2-0.89,2-2v-1.92c3.39-0.58,6.15-3.01,6.7-6.1
			C93.97,67.25,92.72,63.72,87.76,61.89L87.76,61.89z M81.88,59.52c-0.64-0.47-0.95-1.22-0.83-2.04c0.13-0.92,0.78-1.68,1.76-2.09
			v4.52C82.38,59.73,82.06,59.59,81.88,59.52L81.88,59.52z M89.57,69.24c-0.2,1.1-1.23,2.23-2.77,2.71V65.8
			C88.8,66.64,89.81,67.88,89.57,69.24L89.57,69.24z M89.57,69.24"/>
	</g>
</g>
</svg>
