<?xml version="1.0" encoding="utf-8"?>
<!-- Generator: Adobe Illustrator 23.0.1, SVG Export Plug-In . SVG Version: 6.00 Build 0)  -->
<svg version="1.1" id="Layer_1" xmlns="http://www.w3.org/2000/svg" xmlns:xlink="http://www.w3.org/1999/xlink" x="0px" y="0px"
	 viewBox="0 0 78.71 78.71" style="enable-background:new 0 0 78.71 78.71;" xml:space="preserve">
<style type="text/css">
	.st0{fill:#27B3CA;}
</style>
<polygon class="st0" points="52.74,57.32 54.76,66.94 57.76,65.26 64.65,72.41 67,69.15 61.56,61.47 62.71,58.56 "/>
<g id="Lunch_product">
	<path d="M78.8,15.3c-0.12-0.43-0.45-0.77-0.87-0.9L48.97,5.18c-0.5-0.16-1.05-0.01-1.39,0.39l-8.22,9.4l-8.22-9.4
		c-0.35-0.39-0.89-0.55-1.39-0.39L0.77,14.4c-0.69,0.22-1.08,0.96-0.86,1.65c0.05,0.17,0.14,0.33,0.26,0.47l8.46,9.67l-8.46,9.67
		c-0.48,0.55-0.42,1.38,0.12,1.86c0.14,0.12,0.3,0.21,0.47,0.26l8.3,2.64v21.12c0,0.55,0.35,1.05,0.87,1.24L38.9,73.51
		c0.01,0,0.02,0,0.03,0c0.27,0.1,0.57,0.1,0.84,0c0.01,0,0.02,0,0.03,0l13.77-5l0.04,0.18c0.16,0.71,0.87,1.15,1.58,0.99
		c0.24-0.06,0.46-0.18,0.64-0.35l1.86-1.86l5.75,5.75c0.51,0.51,1.35,0.51,1.86,0l3.72-3.72c0.51-0.51,0.51-1.35,0-1.86l-3.47-3.47
		l3.22-1.17c0.52-0.19,0.86-0.68,0.86-1.24V40.62l8.29-2.64c0.69-0.22,1.08-0.96,0.86-1.65c-0.05-0.17-0.14-0.33-0.26-0.47
		l-8.45-9.67l8.46-9.67C78.82,16.19,78.92,15.73,78.8,15.3z M39.35,34.02l-24.62-7.84l23.3-7.42v6.1c0,0.73,0.59,1.32,1.32,1.32
		s1.32-0.59,1.32-1.32v-6.1l23.3,7.42L39.35,34.02z M29.71,7.95l7.32,8.37l-26.23,8.35L3.49,16.3L29.71,7.95z M10.81,27.7
		l26.23,8.35l-7.32,8.37L3.49,36.07L10.81,27.7z M64.37,70.41l-5.75-5.75c-0.51-0.51-1.35-0.51-1.86,0l-1.11,1.11l-1.77-7.75
		l7.73,1.8l-1.12,1.12c-0.51,0.51-0.51,1.35,0,1.86l5.74,5.74L64.37,70.41z M67,60.81l-3.51,1.27l-0.21-0.21l1.86-1.86
		c0.51-0.51,0.51-1.35,0-1.86c-0.17-0.17-0.39-0.3-0.63-0.35l-12.08-2.81c-0.71-0.16-1.42,0.28-1.58,0.99c-0.05,0.2-0.05,0.4,0,0.59
		l2.14,9.36l-12.31,4.47v-9.97c0-0.73-0.59-1.32-1.32-1.32s-1.32,0.59-1.32,1.32v9.97L11.7,60.81V41.46l18.04,5.74
		c0.13,0.04,0.26,0.06,0.39,0.06c0.38,0,0.74-0.16,0.99-0.45l6.91-7.9v10.98c0,0.73,0.59,1.32,1.32,1.32s1.32-0.59,1.32-1.32V38.91
		l6.91,7.9c0.25,0.28,0.61,0.45,0.99,0.45c0.13,0,0.27-0.02,0.39-0.06L67,41.46V60.81z M48.99,44.42l-7.32-8.37L67.9,27.7l7.32,8.37
		L48.99,44.42z M67.9,24.67l-26.23-8.35l7.32-8.37l26.23,8.35L67.9,24.67z"/>
	<circle cx="39.35" cy="55.15" r="1.32"/>
	<circle cx="39.35" cy="30.14" r="1.32"/>
</g>
</svg>
