<?xml version="1.0" encoding="utf-8"?>
<!-- Generator: Adobe Illustrator 23.0.1, SVG Export Plug-In . SVG Version: 6.00 Build 0)  -->
<svg version="1.1" id="Layer_1" xmlns="http://www.w3.org/2000/svg" xmlns:xlink="http://www.w3.org/1999/xlink" x="0px" y="0px"
	 viewBox="0 0 78.71 78.71" style="enable-background:new 0 0 78.71 78.71;" xml:space="preserve">
<style type="text/css">
	.st0{fill:#F7F9FA;}
	.st1{fill:#F6F8F9;}
	.st2{fill:#040404;}
	.st3{fill:#27B3CA;}
	.st4{fill:#D8D9DA;}
</style>
<g>
	<path d="M45.7,60.3c-0.42,0.51-0.21,1.12-0.21,1.67c-0.02,3.86-0.01,7.73-0.02,11.59c-0.01,3.34-1.76,5.13-5.06,5.13
		c-11.77,0.01-23.53-0.05-35.3,0.04C2.25,78.75-0.01,76.57,0,73.57C0.08,50.74,0.07,27.91,0,5.08C-0.01,2.33,2.07-0.29,5.17,0
		c0.81,0.08,1.64,0,2.46,0.02c0.69,0.02,1.08,0.42,1.11,1.11c0.03,0.71-0.39,1.12-1.05,1.16C6.75,2.36,5.81,2.3,4.87,2.34
		c-1.72,0.07-2.43,0.77-2.5,2.49C2.34,5.76,2.37,6.69,2.37,7.75c13.59,0,27.07,0,40.61,0c0.35-1.09,0.2-2.2,0.15-3.29
		c-0.06-1.3-0.81-1.98-2.13-2.11c-0.52-0.05-1.05-0.03-1.58-0.03c-7.9,0-15.81,0-23.71,0c-0.53,0-1.06,0.02-1.58-0.04
		c-0.66-0.07-1.1-0.43-1.08-1.14c0.02-0.69,0.41-1.07,1.09-1.12c0.35-0.03,0.7-0.01,1.05-0.01c8.37,0,16.74,0,25.11,0
		c3.42,0,5.16,1.74,5.17,5.2c0.01,8.9,0,17.8,0,26.69c0,0.56,0,1.13,0,1.78c3.32-2.06,3.43-2.09,6.18-1.79
		c1.24-2.86,3.42-4.12,6.48-3.53c0.53-0.22,0.56-0.69,0.77-1.02c2.16-3.48,7.12-3.43,9.1,0.16c3.76,6.82,7.35,13.72,9.06,21.42
		c0.25,1.13,0.88,2.16,1.26,3.27c1,2.93-0.06,6.31-2.52,8.17c-0.32,0.25-0.67,0.48-1.04,0.66c-0.59,0.29-1.17,0.25-1.54-0.36
		c-0.35-0.58-0.23-1.12,0.32-1.54c0.37-0.28,0.78-0.53,1.12-0.84c1.62-1.51,2.26-3.46,1.4-5.42c-1.2-2.76-1.82-5.68-2.72-8.51
		c-1.78-5.56-4.65-10.6-7.38-15.7c-0.99-1.84-2.92-2.13-4.44-0.85c-0.99,0.84-1.21,1.77-0.62,2.96c0.54,1.1,1.13,2.18,1.7,3.27
		c0.37,0.7,0.45,1.39-0.36,1.8c-0.79,0.39-1.33-0.02-1.7-0.74C60,34,59.46,32.9,58.85,31.83c-0.72-1.27-2.16-1.62-3.48-0.91
		c-1.33,0.71-1.82,2.08-1.18,3.37c0.55,1.1,1.14,2.17,1.71,3.27c0.35,0.69,0.46,1.37-0.35,1.81c-0.82,0.45-1.34-0.02-1.7-0.7
		c-0.55-1.03-1.04-2.1-1.6-3.12c-0.76-1.4-2.01-1.84-3.38-1.22c-1.47,0.66-2.13,2.16-1.5,3.63c0.44,1.02,1,1.99,1.5,2.98
		c0.58,1.16,0.51,1.76-0.24,2.08c-0.98,0.42-1.39-0.27-1.76-0.97c-1.93-3.67-3.86-7.35-5.78-11.03c-1.17-2.23-2.32-4.47-3.49-6.69
		c-0.98-1.87-2.29-2.45-3.8-1.72c-1.6,0.77-2.19,2.55-1.28,4.32c3.14,6.08,6.33,12.14,9.5,18.2c0.43,0.83,0.86,1.66,1.3,2.49
		c0.3,0.56,0.41,1.1-0.11,1.6c-0.52,0.5-1.03,0.37-1.6,0.07c-1.91-1.02-3.81-2.05-5.74-3.02c-1.42-0.72-2.43-0.57-3.36,0.4
		c-1.44,1.5-1.23,3.58,0.61,4.57c2.52,1.36,5.11,2.58,7.68,3.86c3.14,1.56,6.28,3.13,9.44,4.65c1.58,0.77,2.78,1.88,3.68,3.39
		c1.87,3.14,4.45,3.85,7.76,2.19c1.83-0.92,3.63-1.89,5.45-2.83c0.36-0.19,0.74-0.36,1.12-0.48c0.52-0.16,0.94,0.08,1.18,0.52
		c0.27,0.5,0.27,1.01-0.23,1.42c-0.05,0.04-0.09,0.08-0.14,0.11c-2.89,1.39-5.54,3.33-8.66,4.2c-3.03,0.84-6.27-0.51-7.97-3.1
		C50.59,62.39,49.21,61.39,45.7,60.3z"/>
	<path class="st0" d="M31.86,53.22c3.66,2.12,7.49,3.72,11.22,5.57c0.1,1.5,0.15,2.94-0.05,4.49c-13.54,0-27.01,0-40.58,0
		c0-17.68,0-35.28,0-52.98c13.47,0,26.96,0,40.58,0c0,6.26,0,12.56,0,18.78c-1.12-0.97-2.63-4.02-2.64-5.51
		c-0.02-1.76,0-3.51-0.02-5.27c-0.03-2.45-0.94-3.38-3.42-3.39c-4.97-0.02-9.95-0.01-14.92-0.01c-4.39,0-8.78,0-13.16,0
		c-2.83,0-3.68,0.84-3.68,3.65c0,2.22-0.01,4.45,0.02,6.67c0.03,2.41,0.9,3.29,3.29,3.29c6.85,0.01,13.69,0.02,20.54-0.04
		c1.2-0.01,1.87,0.32,2.44,1.43c2.46,4.85,5.03,9.64,7.55,14.46c0.13,0.24,0.23,0.5,0.46,0.99c-1.67-0.49-2.82-1.52-4.21-1.86
		c-1.34-7.72-6.73-10.93-11.52-11.27c-5.67-0.4-10.83,2.88-12.67,8.07c-1.88,5.29-0.08,11.13,4.43,14.38
		C20.45,58.25,26.17,57.77,31.86,53.22z"/>
	<path class="st1" d="M2.36,65.81c13.61,0,27.05,0,40.53,0c0.48,0.53,0.24,1.21,0.25,1.82c0.03,1.93,0.02,3.86,0.01,5.79
		c-0.02,2.29-0.65,2.94-2.93,2.94c-7.31,0.01-14.63,0-21.94,0c-4.27,0-8.54,0.01-12.82,0c-2.49-0.01-3.09-0.62-3.1-3.14
		C2.35,70.78,2.36,68.34,2.36,65.81z"/>
	<path class="st1" d="M32.72,43.63c-3.58,2.21-4.26,4.18-2.81,7.95c-2.9,3.38-7.98,4.14-12.14,1.82c-4.23-2.36-6.15-7.45-4.58-12.09
		c1.5-4.44,6.18-7.4,10.7-6.78C28.73,35.19,32.44,38.98,32.72,43.63z"/>
	<path class="st1" d="M7.56,17.31c10.16,0,20.2,0,30.37,0c0.2,1.15,0.12,2.23,0.07,3.61c-2.02-0.98-3.97-1.31-5.87-0.12
		c-1.94,1.21-2.56,3.09-2.57,5.34c-7.33,0-14.61,0-22,0C7.56,23.2,7.56,20.36,7.56,17.31z"/>
	<path class="st2" d="M22.73,74.16c-1.11,0-2.22,0.03-3.33-0.01c-1.81-0.07-2.96-1.23-3.02-2.97c-0.06-1.76,1.02-3.1,2.79-3.18
		c2.33-0.11,4.68-0.11,7.01-0.02c1.88,0.07,3.01,1.4,2.93,3.23c-0.07,1.74-1.23,2.86-3.04,2.95c-0.12,0.01-0.23,0-0.35,0
		C24.72,74.16,23.72,74.16,22.73,74.16C22.73,74.16,22.73,74.16,22.73,74.16z"/>
	<path class="st3" d="M20.16,47.43c2.46-2.52,4.62-4.73,6.79-6.94c0.33-0.33,0.65-0.69,1.02-0.96c0.49-0.35,0.99-0.27,1.42,0.15
		c0.45,0.43,0.48,0.92,0.13,1.42c-0.2,0.28-0.46,0.53-0.7,0.78c-2.4,2.4-4.79,4.8-7.2,7.19c-1.14,1.13-1.48,1.12-2.6,0.04
		c-0.84-0.81-1.67-1.63-2.48-2.48c-0.86-0.9-0.98-1.57-0.36-2.09c0.79-0.67,1.41-0.22,1.94,0.4C18.76,45.7,19.37,46.47,20.16,47.43z
		"/>
	<path class="st4" d="M22.8,71.9c-1.05,0-2.1,0.01-3.15,0c-0.58-0.01-1.07-0.21-1.02-0.91c0.04-0.58,0.49-0.74,1-0.74
		c2.1,0,4.2-0.01,6.29,0c0.53,0,0.92,0.24,0.94,0.81c0.01,0.58-0.41,0.82-0.92,0.84C24.89,71.93,23.84,71.91,22.8,71.9
		C22.8,71.91,22.8,71.9,22.8,71.9z"/>
</g>
</svg>
