<?xml version="1.0" encoding="utf-8"?>
<!-- Generator: Adobe Illustrator 23.0.1, SVG Export Plug-In . SVG Version: 6.00 Build 0)  -->
<svg version="1.1" id="Layer_1" xmlns="http://www.w3.org/2000/svg" xmlns:xlink="http://www.w3.org/1999/xlink" x="0px" y="0px"
	 viewBox="0 0 78.71 78.71" style="enable-background:new 0 0 78.71 78.71;" xml:space="preserve">
<style type="text/css">
	.st0{fill:none;stroke:#000000;stroke-width:1.2712;stroke-miterlimit:10;}
	.st1{fill:#27B3CA;}
	.st2{fill:none;stroke:#000000;stroke-width:1.0899;stroke-miterlimit:10;}
	.st3{fill:#565656;}
</style>
<g>
	<g>
		<g>
			<g>
				<path d="M52.99,51.06c0-0.09-0.03-0.2-0.06-0.29c-0.23-0.67-0.79-1.23-1.46-1.43c-0.91-0.29-1.81,0.09-2.43,0.76
					c-0.44,0.44-0.67,1.05-0.58,1.67c0.03,0.47,0.26,0.88,0.56,1.2c0.41,0.41,0.94,0.7,1.49,0.79c1.2,0.18,2.34-0.76,2.52-1.93
					C53.05,51.55,53.05,51.29,52.99,51.06z M50.04,51.44c0.03-0.41,0.38-0.7,0.79-0.7c0.44,0.03,0.76,0.41,0.7,0.85
					C51.44,52.52,49.98,52.37,50.04,51.44z"/>
			</g>
			<g>
				<path d="M62.12,62.35c0-0.53-0.09-1.11-0.56-1.43c-0.23-0.18-0.56-0.29-0.85-0.32c-0.26-0.03-0.59-0.03-0.73-0.23
					c-0.32-0.38-0.12-1.49-0.12-1.96c0.03-0.76,0-1.52,0-2.31c0-5.85,0.06-11.73,0.03-17.61c-0.03-1.2-0.03-2.4-0.03-3.57
					c0-1.17,0.88-0.79,1.52-1.37c0.47-0.41,0.7-0.99,0.73-1.58c0.06-1.23-0.7-1.87-1.73-2.37c-6.55-3.16-13.11-6.29-19.66-9.48
					c-0.91-0.44-1.7-0.41-2.6,0.03c-2.66,1.29-5.35,2.57-8.02,3.83c-3.98,1.9-8.1,3.6-11.91,5.85c-0.79,0.47-1.52,1.11-1.46,2.14
					c0.06,0.88,0.7,1.78,1.58,1.99c0.64,0.18,0.7,0.53,0.7,1.08V59.6c0,0.64-0.03,1.05-0.82,0.99c-1.4-0.12-1.61,1.87-1.46,2.84
					c0.09,0.53,0.23,1.11,0.7,1.43c0.32,0.2,0.7,0.26,1.08,0.26c2.93-0.03,5.85,0,8.78,0c2.95-0.03,5.94-0.03,8.89-0.03h18.11
					c1.23,0,2.46,0.03,3.72,0.06c0.99,0,2.19,0.18,3.16-0.18C62.18,64.63,62.15,63.2,62.12,62.35z M18.41,32.16
					c-0.03-0.06-0.03-0.12-0.06-0.18c-0.09-0.47,0.26-0.73,0.61-0.94c1.17-0.7,2.49-1.2,3.74-1.78c1.32-0.64,2.63-1.26,3.92-1.9
					c2.87-1.32,5.7-2.72,8.57-4.1c1.26-0.61,2.52-1.2,3.77-1.84c0.5-0.26,1.02,0.03,1.52,0.26c5.27,2.55,10.56,5.09,15.86,7.64
					c1.17,0.56,2.34,1.14,3.54,1.7c0.5,0.23,0.91,0.59,0.59,1.17c-0.35,0.64-0.91,0.35-1.4,0.12c-6.14-2.95-12.32-5.91-18.46-8.92
					c-0.82-0.38-1.46-0.44-2.28,0c-1.4,0.73-2.9,1.37-4.33,2.05c-1.11,0.64-2.25,1.17-3.45,1.64c-1.78,0.73-3.51,1.73-5.27,2.57
					c-1.87,0.91-3.74,1.81-5.62,2.75C19.23,32.6,18.62,32.65,18.41,32.16z M21.63,45.38c0.23,0.12,0.23,0.35,0.23,0.59
					c-0.03,1.35,0,2.66,0,4.01c0,0.88-0.17,1.73-1.02,2.16v1.64c0.41-0.06,0.91-0.7,1.17,0.2c0.29,0.88,0.67,1.7,1.64,2.02
					c0.26,0,0.56,0,0.82,0.03c1.4,0.03,1.37,0.03,1.4,1.4c0.03,0.94-0.53,0.85-1.32,0.97c-0.64,0.09-1.26,0.56-1.49,1.2
					c-0.18,0.47-0.26,1.02-0.91,1.05c-0.35,0-1.02,0-1.37-0.12c-0.38-0.15-0.23-0.56-0.23-0.88V34.41c0-0.56-0.06-0.7,0.47-0.94
					c5.27-2.46,10.5-5.06,15.74-7.64c0.58-0.23,1.11-0.53,1.67-0.79c0.41-0.2,1.02-0.7,1.43-0.23c0.44,0.29,0.12,0.73-0.18,1.02
					c-4.15,4.15-8.31,8.34-12.49,12.49c-0.91,0.94-1.84,1.84-2.78,2.78c-0.44,0.47-0.91,0.91-1.37,1.37
					c-0.32,0.32-0.67,0.56-0.97,0.85c-0.09,0.06-0.15,0.15-0.2,0.2c-0.09,0.09-0.12,0.18-0.17,0.26c-0.2,0.26-0.5,0.61-0.85,0.41
					v1.67C21.13,45.76,21.31,45.23,21.63,45.38z M23.56,53.54c0-0.29,0.09-0.53,0.41-0.56c0.76-0.12,1.61,0.03,2.37,0.03
					c0.47,0.03,0.96,0.03,1.43,0h0.73c0.18,0,0.35-0.03,0.53-0.03c0.06,0,0.12,0,0.15,0.03c0.18,0,0.32,0.09,0.41,0.26
					c0.09,0.23,0.06,0.59,0.03,0.85c-0.03,0.32-0.29,0.44-0.61,0.41c-1.46-0.03-2.95,0-4.45,0C23.88,54.54,23.56,54.22,23.56,53.54z
					 M28.42,59.89c0.18,0.03,0.44,0.23,0.38,0.5c-0.09,0.26-0.35,0.2-0.53,0.2h-3.33c-0.2,0-0.47,0.06-0.53-0.2
					c-0.06-0.26,0.18-0.5,0.38-0.5C25.99,59.75,27.22,59.75,28.42,59.89z M40.94,63.23c-0.26,0.44-0.73,0.47-1.2,0.44
					c-3.36-0.12-6.73-0.06-10.12-0.06h-10.3c-0.61,0-1.08,0.03-1.05-0.85c0-0.88,0.53-0.67,0.99-0.67h17.76
					c0.94-0.03,1.87-0.03,2.81-0.09c0.38,0,0.7,0.03,0.97,0.29C41.06,62.55,41.09,62.91,40.94,63.23z M34.15,50.74
					c0-0.56,0.15-0.76,0.73-0.76c1.78,0.06,3.6,0.03,5.38,0.03c0.5-0.03,0.7,0.12,0.7,0.67c-0.03,3.07-0.03,6.14,0,9.22
					c0,0.53-0.18,0.67-0.7,0.67c-1.81-0.03-3.63-0.03-5.47,0c-0.58,0.03-0.64-0.23-0.64-0.73c0.03-1.49,0.03-3.01,0.03-4.53
					C34.18,53.78,34.18,52.26,34.15,50.74z M36.43,44.74c0.03,0.59-0.18,0.76-0.73,0.73c-0.5,0-0.82,0-0.82-0.67
					c0.06-2.08,0.06-4.18,0.03-6.26c-0.03-0.7,0.38-0.61,0.82-0.64c0.53-0.06,0.7,0.15,0.7,0.67c-0.03,1.08-0.03,2.17-0.03,3.25
					C36.4,42.78,36.38,43.77,36.43,44.74z M54.6,62.58c0,0.85-0.26,1.05-1.08,1.05c-3.36-0.06-6.73-0.06-10.12-0.03
					c-0.64,0.03-0.94-0.09-0.94-0.85c0.03-7.75,0.03-15.51,0-23.29c0-0.67,0.2-0.85,0.88-0.82c3.45,0,6.93,0,10.42-0.03
					c0.67,0,0.85,0.23,0.85,0.88c-0.03,3.92-0.03,7.84-0.03,11.73C54.57,55.01,54.54,58.81,54.6,62.58z M54.69,37.16
					c-2.25,0.03-4.51,0-6.76-0.03c-1.17,0-2.34,0-3.48,0.03c-0.56,0-1.14,0.03-1.7,0.03c-0.85,0.03-1.52,0.29-1.76,1.17
					c-0.41,1.43-0.17,2.95-0.12,4.42c0.03,0.88,0.06,1.78,0.09,2.66c0,0.76,0.17,1.73,0,2.49c-0.09,0.47-0.41,0.59-0.82,0.59
					c-2.19,0-2.19,0.03-2.19-2.11v-5.88c0-0.7,0-1.4-0.03-2.11c-0.03-0.38,0-0.85-0.15-1.2c-0.15-0.29-0.44-0.56-0.73-0.67
					c-0.32-0.18-0.7-0.18-1.05-0.15c-0.38,0-0.76-0.03-1.14,0c-0.7,0.06-1.23,0.5-1.43,1.17c-0.15,0.38-0.09,0.82-0.06,1.23
					c0.03,1.96,0,3.92,0,5.88c0,0.44-0.06,0.88,0.15,1.32c0.38,0.85,1.23,1.05,2.08,0.99c0.23-0.03,0.5-0.06,0.67,0.12
					c0.2,0.18,0.2,0.56,0.18,0.79c0,0.18-0.03,0.35-0.18,0.47c-0.12,0.12-0.32,0.12-0.5,0.12c-1.17,0-2.31,0.03-3.48,0
					c-0.5,0-1.05,0.15-1.11,0.73c-0.03,0.26,0.15,0.59,0.38,0.67c0.26,0.06,0.53,0,0.76,0.15c0.53,0.29,0.35,0.97,0.35,1.46
					c0,2.66-0.03,5.3,0.03,7.96c0.03,0.29,0.03,0.64-0.18,0.91c-0.29,0.38-0.97,0.2-1.37,0.23c-0.38,0-0.64-0.29-0.82-0.61
					c-0.2-0.35-0.35-0.73-0.64-1.02c-0.23-0.2-0.53-0.38-0.82-0.5c-0.35-0.12-0.67-0.12-1.02-0.12c-0.09,0-0.2,0-0.29-0.06
					c-0.12-0.06-0.12-0.2-0.15-0.32c-0.06-0.44,0-0.88,0-1.35c0-0.15-0.03-0.32,0.03-0.44c0.06-0.09,0.12-0.12,0.2-0.15
					c0.18-0.03,0.41-0.03,0.58,0c0.85,0.09,2.08,0.2,2.66-0.61c0.44-0.67,0.35-1.67,0.23-2.46c-0.06-0.32-0.09-0.73-0.35-0.97
					c-0.38-0.38-1.02-0.5-1.55-0.47c-1.61,0.03-3.22-0.03-4.86,0c-0.26,0.03-0.61,0-0.73-0.29c-0.18-0.29-0.09-0.82-0.09-1.17
					c0-1.52,0.2-3.1,0-4.62c-0.06-0.29-0.15-0.56-0.41-0.73c-0.23-0.12-0.56-0.2-0.58-0.5c0-0.09,0.03-0.2,0.09-0.29
					c0.29-0.56,0.88-0.99,1.35-1.43c0.53-0.53,1.02-1.05,1.55-1.58l3.16-3.16c2.11-2.11,4.21-4.21,6.32-6.29
					c1.78-1.81,3.6-3.6,5.41-5.41c0.29-0.29,0.58-0.67,1.11-0.44c2.63,1.05,5.15,2.4,7.69,3.63c2.66,1.29,5.35,2.57,8.02,3.86
					c0.35,0.18,0.85,0.32,1.02,0.7c0.23,0.47,0.12,1.26,0.12,1.76c-0.03,5.06-0.03,10.09-0.03,15.13c0,3.01,0,6.03,0.03,9.01
					c0,1.11-0.64,0.85-1.26,0.88c-0.67,0.06-1.08,0.03-1.08-0.91c0.06-5.91,0.06-11.82,0.03-17.7v-2.75c0-0.38,0-0.76-0.12-1.14
					C55.77,37.54,55.25,37.16,54.69,37.16z M59.66,63.61c-0.91,0-1.81-0.03-2.72,0.03c-0.61,0-0.91-0.09-0.91-0.82
					c0-0.7,0.26-0.79,0.85-0.76c0.47,0.03,0.94,0,1.4,0v0.03c0.47,0,0.94,0,1.4-0.03c0.53,0,0.97-0.06,0.97,0.76
					C60.66,63.64,60.25,63.64,59.66,63.61z"/>
			</g>
		</g>
		<g>
			<path d="M27.63,11.01c-1.58,0.56-3.13,1.26-4.62,2.08c0.41,0.99,0.67,2.08,0.76,3.19c1.67-0.97,3.45-1.81,5.32-2.46
				C28.48,12.97,27.98,12.03,27.63,11.01z M67.65,23.67c-0.88,0.61-1.84,1.08-2.87,1.4c3.69,5.12,5.88,11.44,5.88,18.23
				c0,17.23-14.01,31.25-31.25,31.25c-17.23,0-31.25-14.01-31.25-31.25c0-5.68,1.52-11,4.18-15.59c-1.11-0.09-2.19-0.35-3.19-0.79
				C6.53,31.81,5.01,37.39,5.01,43.3c0,18.99,15.45,34.41,34.4,34.41c18.99,0,34.41-15.42,34.41-34.41
				C73.82,36.02,71.54,29.23,67.65,23.67z M51.24,11.01c-1.7-0.64-3.45-1.14-5.29-1.46c-0.15,1.08-0.47,2.11-0.99,3.01
				c1.96,0.35,3.83,0.88,5.65,1.58C50.65,13.02,50.89,11.97,51.24,11.01z"/>
		</g>
	</g>
	<g>
		<path class="st0" d="M57.93,14.38c-0.93,0.02-1.72-0.05-2.51,0.1c-0.75,0.14-1.43,0.45-2.15,0.69c-0.84-3.15,2.06-7.3,5.83-8.4
			c4.41-1.29,8.96,1.15,10.38,5.62c1.56,4.92-1.77,9.43-5.25,10.3c0.03-1.63-0.15-3.2-1.1-4.72c1.75-0.39,2.99-1.3,3.66-2.86
			c0.48-1.11,0.47-2.26,0.08-3.39c-0.75-2.21-3.11-3.43-5.48-2.94C59.52,9.14,57.35,11.23,57.93,14.38z"/>
		<path class="st1" d="M53.57,17.36c1.86-1.47,4.26-1.53,6.29-0.16c2.03,1.37,2.89,3.66,2.21,5.89
			C58.61,23.97,53.96,20.6,53.57,17.36z"/>
		<path class="st1" d="M61.2,15.17c-1.06-0.71-1.32-2.09-0.6-3.16c0.72-1.07,2.08-1.33,3.15-0.6c1.07,0.73,1.33,2.1,0.6,3.15
			C63.62,15.64,62.28,15.9,61.2,15.17z"/>
	</g>
	<g>
		<path class="st0" d="M11.54,20.37c-0.33,0.87-0.69,1.58-0.86,2.37c-0.15,0.74-0.12,1.5-0.17,2.25c-3.24-0.41-5.99-4.66-5.59-8.56
			c0.47-4.57,4.44-7.87,9.11-7.5c5.14,0.41,8.07,5.19,7.57,8.74c-1.49-0.64-3.02-1.06-4.79-0.76c0.29-1.77-0.07-3.26-1.27-4.47
			c-0.85-0.86-1.92-1.28-3.11-1.35c-2.33-0.13-4.35,1.59-4.79,3.97C7.29,16.93,8.41,19.73,11.54,20.37z"/>
		<path class="st1" d="M12.66,25.53c-0.66-2.28,0.18-4.52,2.22-5.89c2.03-1.36,4.48-1.3,6.29,0.17
			C20.69,23.35,15.82,26.39,12.66,25.53z"/>
		<path class="st1" d="M13.51,17.64c-1.06,0.72-2.43,0.44-3.15-0.63c-0.72-1.07-0.45-2.43,0.63-3.15c1.08-0.72,2.44-0.45,3.15,0.63
			C14.85,15.57,14.59,16.91,13.51,17.64z"/>
	</g>
	<g>
		<path class="st2" d="M33.7,9.57c-0.65,0.46-1.25,0.79-1.74,1.27c-0.46,0.45-0.8,1-1.2,1.51c-2.11-1.84-2.02-6.19,0.13-8.77
			c2.52-3.02,6.93-3.47,10.07-0.96c3.46,2.76,3.25,7.56,1.19,9.84c-0.75-1.17-1.64-2.2-3.04-2.84c1.05-1.12,1.51-2.35,1.24-3.79
			c-0.19-1.02-0.75-1.83-1.57-2.45c-1.59-1.21-3.85-0.96-5.3,0.52C32.33,5.08,31.78,7.6,33.7,9.57z"/>
		<path class="st1" d="M32.02,13.77c0.62-1.94,2.3-3.13,4.4-3.12c2.1,0,3.81,1.23,4.39,3.14C38.77,16.07,33.85,15.89,32.02,13.77z"
			/>
		<path class="st1" d="M36.41,8.42c-1.01,0-1.79-0.79-1.79-1.81c0-1.02,0.79-1.79,1.81-1.79c1.03,0.01,1.8,0.79,1.79,1.81
			C38.21,7.66,37.44,8.42,36.41,8.42z"/>
	</g>
	<path class="st3" d="M27.66,10.98l-0.03,0.03c0.03-0.03,0.03-0.03,0-0.03H27.66z"/>
</g>
</svg>
