<?xml version="1.0" encoding="utf-8"?>
<!-- Generator: Adobe Illustrator 23.0.1, SVG Export Plug-In . SVG Version: 6.00 Build 0)  -->
<svg version="1.1" id="Layer_1" xmlns="http://www.w3.org/2000/svg" xmlns:xlink="http://www.w3.org/1999/xlink" x="0px" y="0px"
	 viewBox="0 0 78.71 78.71" style="enable-background:new 0 0 78.71 78.71;" xml:space="preserve">
<style type="text/css">
	.st0{fill:#27B3CA;}
</style>
<g>
	<path class="st0" d="M53.32,23.85c-0.85,0-1.54,0.69-1.54,1.54c0,0.85,0.69,1.54,1.54,1.54c0.85,0,1.54-0.69,1.54-1.54
		C54.86,24.54,54.17,23.85,53.32,23.85z"/>
	<path class="st0" d="M25.39,51.78c-0.85,0-1.54,0.69-1.54,1.54c0,0.85,0.69,1.54,1.54,1.54c0.85,0,1.54-0.69,1.54-1.54
		C26.92,52.47,26.24,51.78,25.39,51.78z"/>
	<path d="M76.79,9.46c-0.52-0.12-1.06,0.04-1.44,0.41l-6.37,6.42h-3.06l-3.36-3.48v-3.1l6.28-6.38c0.37-0.38,0.52-0.92,0.4-1.44
		c-0.12-0.52-0.5-0.93-1-1.1C66.66,0.27,65.01,0,63.33,0c-5.01,0-9.56,2.33-12.48,6.41c-2.74,3.81-3.58,8.48-2.37,12.95L37.16,30.68
		L18.29,11.77V8.06c0-0.54-0.28-1.04-0.75-1.32L6.68,0.22C6.07-0.14,5.3-0.05,4.8,0.45L0.45,4.8c-0.5,0.5-0.59,1.27-0.23,1.88
		l6.52,10.87c0.28,0.46,0.78,0.75,1.32,0.75l3.71,0L30.64,37.2L19.36,48.48c-4.47-1.21-9.14-0.36-12.95,2.38
		C2.33,53.78,0,58.33,0,63.33c0,1.68,0.27,3.33,0.8,4.91c0.17,0.51,0.59,0.89,1.11,1.01c0.52,0.12,1.06-0.04,1.44-0.41l6.37-6.42
		h3.07l3.5,3.5v3.07l-6.42,6.37c-0.38,0.38-0.54,0.92-0.41,1.44c0.12,0.52,0.5,0.94,1.01,1.11c1.58,0.53,3.23,0.8,4.91,0.8
		c5.01,0,9.55-2.33,12.48-6.4c2.74-3.81,3.58-8.48,2.38-12.95l9.06-9.06l2.08,2.25l-0.95,0.95c-0.6,0.6-0.6,1.57,0,2.17
		c0.6,0.6,1.57,0.6,2.17,0l0.86-0.86l19.47,21.15c0.01,0.02,0.03,0.03,0.04,0.05c3.6,3.6,9.44,3.6,13.04,0
		c3.59-3.6,3.59-9.45,0-13.04c-0.02-0.02-0.03-0.03-0.05-0.05L54.77,43.48l0.85-0.85c0.6-0.6,0.6-1.57,0-2.17
		c-0.6-0.6-1.57-0.6-2.17,0l-0.95,0.95l-2.26-2.07l9.1-9.1c1.29,0.35,2.63,0.52,3.98,0.52c8.48,0,15.37-6.9,15.37-15.37
		c0-1.68-0.27-3.33-0.8-4.91C77.73,9.96,77.31,9.58,76.79,9.46z M13.5,15.67c-0.29-0.29-0.68-0.44-1.09-0.44l-3.48,0L3.48,6.12
		l2.65-2.65l9.09,5.46v3.48c0,0.41,0.16,0.8,0.45,1.09l19.32,19.36l-2.17,2.17L13.5,15.67z M52.6,45.66l21.26,19.5
		c2.37,2.4,2.37,6.28-0.02,8.68c-2.39,2.39-6.27,2.4-8.68,0.02L45.62,52.63L52.6,45.66z M50.33,43.57l-6.79,6.79l-2.08-2.25
		l6.61-6.61L50.33,43.57z M63.33,27.67c-1.34,0-2.67-0.22-3.93-0.64c-0.55-0.19-1.16-0.04-1.58,0.37
		c-7.71,7.71-24.31,24.31-30.43,30.43c-0.41,0.41-0.56,1.02-0.37,1.58c1.28,3.79,0.67,7.84-1.68,11.11
		c-2.34,3.25-5.98,5.12-9.98,5.12c-0.45,0-0.9-0.02-1.34-0.07l4.88-4.84c0.29-0.29,0.45-0.68,0.45-1.09v-4.35
		c0-0.41-0.16-0.8-0.45-1.09l-4.4-4.4c-0.29-0.29-0.68-0.45-1.09-0.45H9.08c-0.41,0-0.8,0.16-1.09,0.45l-4.84,4.88
		c-0.05-0.44-0.07-0.89-0.07-1.34c0-4,1.87-7.64,5.12-9.98c3.26-2.34,7.31-2.96,11.11-1.68c0.55,0.19,1.16,0.04,1.58-0.37
		c0.08-0.08,30.41-30.41,30.43-30.43c0.41-0.41,0.56-1.02,0.37-1.58c-1.28-3.79-0.67-7.84,1.67-11.1c2.34-3.26,5.98-5.12,9.98-5.12
		c0.46,0,0.92,0.03,1.38,0.08L59.93,8c-0.28,0.29-0.44,0.67-0.44,1.08v4.35c0,0.4,0.15,0.78,0.43,1.07l4.25,4.4
		c0.29,0.3,0.69,0.47,1.11,0.47h4.35c0.41,0,0.8-0.16,1.09-0.45l4.84-4.88c0.05,0.44,0.07,0.89,0.07,1.34
		C75.63,22.15,70.11,27.67,63.33,27.67z"/>
	<path class="st0" d="M47.88,28.65L28.65,47.88c-0.6,0.6-0.6,1.57,0,2.17c0.6,0.6,1.57,0.6,2.17,0l19.24-19.24
		c0.6-0.6,0.6-1.57,0-2.17S48.48,28.05,47.88,28.65z"/>
	<path class="st0" d="M67.31,69.48c0.6,0.6,1.57,0.6,2.17,0c0.6-0.6,0.6-1.57,0-2.17L55.62,53.49c-0.6-0.6-1.58-0.6-2.17,0
		c-0.6,0.6-0.6,1.57,0,2.17L67.31,69.48z"/>
</g>
</svg>
