<?xml version="1.0" encoding="utf-8"?>
<!-- Generator: Adobe Illustrator 23.0.1, SVG Export Plug-In . SVG Version: 6.00 Build 0)  -->
<svg version="1.1" id="Layer_1" xmlns="http://www.w3.org/2000/svg" xmlns:xlink="http://www.w3.org/1999/xlink" x="0px" y="0px"
	 viewBox="0 0 78.71 78.71" style="enable-background:new 0 0 78.71 78.71;" xml:space="preserve">
<style type="text/css">
	.st0{fill:#27B3CA;}
</style>
<g>
	<path d="M76,60.64h-1.17V43.52c0-1.05-0.86-1.91-1.91-1.91h-6.15v-8.97c0-1.05-0.86-1.91-1.91-1.91h-2.21
		c-0.64,0-1.15,0.52-1.15,1.15c0,0.64,0.52,1.15,1.15,1.15h1.82v8.58h-0.1c-2.82,0-21.54,0-23.87,0v-8.58h8.65v3.49
		c0,1.07,0.87,1.95,1.95,1.95h2.77c1.07,0,1.95-0.87,1.95-1.95v-3.49h2.22c0.64,0,1.15-0.52,1.15-1.15c0-0.64-0.52-1.15-1.15-1.15
		c-1.64,0-2.76,0-4.4,0V8.48c0-1.32-1.08-2.4-2.4-2.4c-3.5,0-20.31,0-23.78,0c-1.32,0-2.4,1.08-2.4,2.4v4.17
		c0,0.64,0.52,1.15,1.15,1.15c0.64,0,1.15-0.52,1.15-1.15V8.48c0-0.05,0.04-0.09,0.09-0.09h8.15v4.45c0,1.25,1.02,2.27,2.27,2.27
		h2.92c1.25,0,2.27-1.02,2.27-2.27V8.39h8.15c0.05,0,0.09,0.04,0.09,0.09v22.24c-8.37,0-16.69,0-23.96,0V17.26
		c0-0.64-0.52-1.15-1.15-1.15c-0.64,0-1.15,0.52-1.15,1.15v13.46c-1.32,0-9.24,0-11.22,0c-1.05,0-1.91,0.86-1.91,1.91v8.97H5.79
		c-1.05,0-1.91,0.86-1.91,1.91v17.12H2.71C1.21,60.64,0,61.85,0,63.34v3.81c0,0.64,0.52,1.15,1.15,1.15h2.28v1.68
		c0,1.45,1.18,2.63,2.63,2.63h11.92c1.45,0,2.63-1.18,2.63-2.63V68.3h10.14v1.68c0,1.45,1.18,2.63,2.63,2.63h3.66
		c0.64,0,1.15-0.52,1.15-1.15s-0.52-1.15-1.15-1.15h-3.66c-0.18,0-0.33-0.15-0.33-0.33V68.3h12.58v1.68c0,0.18-0.15,0.33-0.33,0.33
		h-3.66c-0.64,0-1.15,0.52-1.15,1.15s0.52,1.15,1.15,1.15h3.66c1.45,0,2.63-1.18,2.63-2.63V68.3h10.14v1.68
		c0,1.45,1.18,2.63,2.63,2.63h11.92c1.45,0,2.63-1.18,2.63-2.63V68.3h2.28c0.64,0,1.15-0.52,1.15-1.15v-3.81
		C78.71,61.85,77.49,60.64,76,60.64L76,60.64z M40.78,12.81h-2.86V8.39h2.86V12.81z M72.53,60.64H51.95V43.91h7v4.74
		c0,1.02,0.83,1.84,1.84,1.84h2.89c1.02,0,1.84-0.83,1.84-1.84v-4.74h7L72.53,60.64L72.53,60.64z M63.22,43.91v4.28h-1.96v-4.28
		H63.22z M49.64,60.64H29.06V43.91h7v4.74c0,1.02,0.83,1.84,1.84,1.84h2.89c1.02,0,1.84-0.83,1.84-1.84v-4.74h7V60.64z M40.34,43.91
		v4.28h-1.96v-4.28H40.34z M53.52,36.17h-2.06v-3.14h2.06V36.17z M25.19,33.03h2.06v3.14h-2.06V33.03z M14.24,33.03h8.65v3.49
		c0,1.07,0.87,1.95,1.95,1.95h2.77c1.07,0,1.95-0.87,1.95-1.95v-3.49h8.65v8.58c-8.52,0-16.68,0-23.96,0V33.03z M15.49,43.91h1.96
		v4.28h-1.96V43.91z M6.18,43.91h7v4.74c0,1.02,0.83,1.84,1.84,1.84h2.89c1.02,0,1.84-0.83,1.84-1.84v-4.74h7v16.72H6.18L6.18,43.91
		z M18.32,69.99c0,0.18-0.15,0.33-0.33,0.33H6.06c-0.18,0-0.33-0.15-0.33-0.33V68.3h12.58L18.32,69.99L18.32,69.99z M72.97,69.99
		c0,0.18-0.15,0.33-0.33,0.33H60.72c-0.18,0-0.33-0.15-0.33-0.33V68.3h12.58L72.97,69.99z M76.4,66c-24.63,0-49.27,0-74.09,0v-2.65
		c0-0.22,0.18-0.4,0.4-0.4H76c0.22,0,0.4,0.18,0.4,0.4L76.4,66L76.4,66z"/>
	<path class="st0" d="M45.79,28c0.64,0,1.15-0.52,1.15-1.15v-0.81c0.14,0.06,0.29,0.09,0.45,0.09c0.36,0,0.72-0.17,0.94-0.49
		c0.37-0.52,0.25-1.24-0.27-1.61l-1.6-1.14c-0.4-0.28-0.94-0.28-1.34,0l-1.6,1.14c-0.52,0.37-0.64,1.09-0.27,1.61
		c0.32,0.45,0.9,0.6,1.39,0.39v0.8C44.64,27.49,45.15,28,45.79,28L45.79,28z"/>
	<path class="st0" d="M23.79,55.3l-1.6-1.14c-0.4-0.28-0.94-0.28-1.34,0l-1.6,1.14c-0.52,0.37-0.64,1.09-0.27,1.61
		c0.22,0.32,0.58,0.49,0.94,0.49c0.15,0,0.3-0.03,0.45-0.09v0.81c0,0.64,0.52,1.15,1.15,1.15s1.15-0.52,1.15-1.15v-0.8
		c0.49,0.21,1.07,0.05,1.39-0.39C24.43,56.38,24.31,55.66,23.79,55.3L23.79,55.3z"/>
	<path class="st0" d="M42.31,55.3c-0.52,0.37-0.64,1.09-0.27,1.61c0.22,0.32,0.58,0.49,0.94,0.49c0.15,0,0.3-0.03,0.45-0.09v0.81
		c0,0.64,0.52,1.15,1.15,1.15s1.15-0.52,1.15-1.15v-0.8c0.49,0.21,1.07,0.05,1.39-0.39c0.37-0.52,0.25-1.24-0.27-1.61l-1.6-1.14
		c-0.4-0.28-0.94-0.28-1.34,0L42.31,55.3z"/>
	<path class="st0" d="M64.79,56.9c0.22,0.32,0.58,0.49,0.94,0.49c0.15,0,0.3-0.03,0.45-0.09v0.81c0,0.64,0.52,1.15,1.15,1.15
		c0.64,0,1.15-0.52,1.15-1.15v-0.8c0.49,0.21,1.07,0.05,1.39-0.39c0.37-0.52,0.25-1.24-0.27-1.61L68,54.16
		c-0.4-0.28-0.94-0.28-1.34,0l-1.6,1.14C64.55,55.66,64.42,56.38,64.79,56.9z"/>
</g>
</svg>
