<?xml version="1.0" encoding="utf-8"?>
<!-- Generator: Adobe Illustrator 23.0.1, SVG Export Plug-In . SVG Version: 6.00 Build 0)  -->
<svg version="1.1" id="Layer_1" xmlns="http://www.w3.org/2000/svg" xmlns:xlink="http://www.w3.org/1999/xlink" x="0px" y="0px"
	 viewBox="0 0 78.71 78.71" style="enable-background:new 0 0 78.71 78.71;" xml:space="preserve">
<style type="text/css">
	.st0{stroke:#000000;stroke-width:0.75;stroke-miterlimit:10;}
	.st1{fill:#27B3CA;}
</style>
<g>
	<path class="st0" d="M77.65,27.08c-0.75-0.84-1.8-1.3-2.92-1.3H3.95c-1.09,0-2.17,0.46-2.93,1.3c-0.75,0.84-1.13,1.92-1,3.05
		l3.76,40.53c0.21,2.05,1.92,3.63,3.97,3.63h63.21c2.05,0,3.76-1.59,3.93-3.63l3.8-40.53C78.78,29,78.4,27.91,77.65,27.08z
		 M56.55,62.01c0,2.17-1.75,3.97-3.97,3.97H26.09c-2.17,0-3.97-1.8-3.97-3.97c0-5.43,4.39-9.82,9.78-9.82h2.88
		c-2.97-1.59-4.93-4.72-4.93-8.31c0-5.22,4.26-9.48,9.48-9.48c5.26,0,9.53,4.26,9.53,9.48c0,3.59-2.01,6.73-4.93,8.31h2.84
		c5.26,0,9.61,4.22,9.78,9.48V62.01z"/>
	<path class="st1" d="M71.06,18.38c0,1.65-1.33,2.98-2.98,2.98H10.61c-1.65,0-2.98-1.33-2.98-2.98s1.33-2.98,2.98-2.98h57.46
		C69.72,15.41,71.06,16.74,71.06,18.38z"/>
	<path class="st0" d="M63.19,7.4c0,1.65-1.33,2.98-2.98,2.98H18.48c-1.65,0-2.98-1.33-2.98-2.98s1.33-2.98,2.98-2.98h41.73
		C61.86,4.42,63.19,5.75,63.19,7.4z"/>
</g>
</svg>
